<?xml version="1.0" encoding="UTF-8" standalone="no"?>
<!-- Created with Inkscape (http://www.inkscape.org/) -->

<svg
   version="1.1"
   id="svg2"
   width="226.66667"
   height="233.33333"
   viewBox="0 0 226.66667 233.33333"
   sodipodi:docname="BMWK_Fz_2017_DTP_CMYK_de.eps"
   xmlns:inkscape="http://www.inkscape.org/namespaces/inkscape"
   xmlns:sodipodi="http://sodipodi.sourceforge.net/DTD/sodipodi-0.dtd"
   xmlns="http://www.w3.org/2000/svg"
   xmlns:svg="http://www.w3.org/2000/svg">
  <defs
     id="defs6" />
  <sodipodi:namedview
     id="namedview4"
     pagecolor="#ffffff"
     bordercolor="#000000"
     borderopacity="0.25"
     inkscape:showpageshadow="2"
     inkscape:pageopacity="0.0"
     inkscape:pagecheckerboard="0"
     inkscape:deskcolor="#d1d1d1" />
  <g
     id="g8"
     inkscape:groupmode="layer"
     inkscape:label="ink_ext_XXXXXX"
     transform="matrix(1.3333333,0,0,-1.3333333,0,233.33333)">
    <g
       id="g10"
       transform="scale(0.1)">
      <path
         d="M 1700,0 H 0 V 1750 H 1700 V 0"
         style="fill:#ffffff;fill-opacity:1;fill-rule:nonzero;stroke:none"
         id="path12" />
      <path
         d="m 285.848,1526.54 c -2.207,1.47 -7.039,3.26 -12.813,3.26 -12.801,0 -25.301,-8.4 -25.301,-30.13 0,-21 9.762,-31.39 23.621,-31.39 5.04,0 9.036,0.94 12.083,2.1 v 20.89 l -6.411,1.47 c -1.05,0.21 -1.472,0.53 -1.472,1.15 0,0.95 0.73,2.21 1.164,3.16 h 23.926 c 0,0 0.105,-0.64 0.105,-1.16 0,-1.68 -0.945,-2.94 -3.562,-3.68 l -2.422,-0.62 v -21.95 c -2.832,-2.51 -10.598,-8.18 -26.036,-8.18 -18.476,0 -32.96,11.43 -32.96,36.95 0,27.29 20.261,38 37.683,38 11.137,0 16.699,-3.15 20.156,-4.73 0.317,-3.14 0.637,-9.65 0.637,-10.49 0,-3.26 -0.945,-5.35 -3.68,-5.35 -0.839,0 -1.679,0.2 -2.414,0.41 l -2.304,10.29"
         style="fill:#231f20;fill-opacity:1;fill-rule:nonzero;stroke:none"
         id="path14" />
      <path
         d="m 336.988,1493.47 c 0.207,0.95 0.532,2.74 0.532,4.52 0,5.78 -2.114,10.71 -8.196,10.71 -6.191,0 -9.875,-4.93 -10.605,-15.23 z m -18.379,-5.56 c 0.11,-13.02 6.313,-19.11 15.336,-19.11 6.715,0 10.496,2.63 13.125,4.83 1.043,-0.84 1.571,-2.62 1.571,-3.57 0,-2.62 -6.922,-8.6 -18.582,-8.6 -12.911,0 -22.571,7.34 -22.571,25.61 0,18.27 11.028,27.61 22.989,27.61 11.867,0 17.851,-7.24 17.851,-17.74 0,-2.73 -0.527,-6.41 -1.258,-9.03 h -28.461"
         style="fill:#231f20;fill-opacity:1;fill-rule:nonzero;stroke:none"
         id="path16" />
      <path
         d="m 386.758,1507.64 h -12.813 v -39.26 l 7.137,-1.36 c 1.047,-0.21 1.477,-0.53 1.477,-1.37 0,-1.04 -0.743,-2.62 -1.055,-2.94 h -24.981 c 0,0 -0.109,0.63 -0.109,0.95 0,1.89 1.262,2.73 3.25,3.47 l 3.574,1.25 v 39.26 h -7.769 c 0,0 -0.11,0.64 -0.11,0.95 0,2 1.258,3.05 3.25,3.57 l 4.629,1.26 v 1.05 c 0,16.9 10.285,25.09 19.321,25.09 5.242,0 7.343,-2.31 7.343,-5.56 0,-2.63 -1.574,-4.1 -3.144,-4.94 -0.949,1.05 -3.684,3.05 -6.938,3.05 -4.507,0 -6.09,-2.52 -6.09,-8.72 0,-3.25 0.215,-9.97 0.215,-9.97 h 13.961 l -1.148,-5.78"
         style="fill:#231f20;fill-opacity:1;fill-rule:nonzero;stroke:none"
         id="path18" />
      <path
         d="m 425.699,1521.92 c -3.355,0 -5.769,2.31 -5.769,5.67 0,3.57 2.414,5.88 5.769,5.88 3.156,0 5.571,-2.31 5.571,-5.88 0,-3.36 -2.415,-5.67 -5.571,-5.67 z m -23.086,-33.8 c 0,-14.07 5.664,-20.37 13.442,-20.37 7.761,0 13.535,6.09 13.535,20.16 0,14.07 -5.774,20.57 -13.535,20.57 -7.778,0 -13.442,-6.19 -13.442,-20.36 z m 4.094,33.8 c -3.152,0 -5.676,2.31 -5.676,5.67 0,3.57 2.524,5.88 5.676,5.88 3.254,0 5.664,-2.31 5.664,-5.88 0,-3.36 -2.41,-5.67 -5.664,-5.67 z m 34.113,-33.38 c 0,-18.16 -12.699,-27.08 -25.507,-27.08 -13.125,0 -23.938,8.39 -23.938,26.03 0,17.74 12.598,27.19 25.93,27.19 13.125,0 23.515,-7.88 23.515,-26.14"
         style="fill:#231f20;fill-opacity:1;fill-rule:nonzero;stroke:none"
         id="path20" />
      <path
         d="m 465.195,1505.02 h 0.313 c 2.207,3.57 6.094,9.66 12.906,9.66 4.945,0 7.246,-2.31 7.246,-5.56 0,-2.32 -1.043,-4.31 -1.883,-5.35 -0.839,0.41 -3.464,1.57 -7.043,1.57 -5.769,0 -8.707,-2.31 -10.914,-5.36 v -31.6 l 7.559,-1.36 c 1.055,-0.21 1.473,-0.53 1.473,-1.37 0,-1.04 -0.84,-2.62 -1.043,-2.94 h -25.411 c 0,0 -0.109,0.63 -0.109,0.95 0,1.89 1.262,2.73 3.25,3.47 l 3.684,1.25 v 38.85 l -7.45,1.15 c 0,0 -0.109,0.63 -0.109,1.05 0,1.78 1.359,3.05 3.875,3.25 l 14.281,1.37 -0.625,-9.03"
         style="fill:#231f20;fill-opacity:1;fill-rule:nonzero;stroke:none"
         id="path22" />
      <path
         d="m 524.09,1505.23 c -1.57,1.47 -4.414,3.15 -8.817,3.15 -8.507,0 -14.804,-6.09 -14.804,-19.95 0,-13.54 5.879,-19 12.91,-19 6.094,0 9.344,2.84 10.711,4.41 z m 10.598,-36.64 7.664,-1.05 c 0,0 0.109,-0.41 0.109,-0.84 0,-1.89 -1.367,-3.15 -3.891,-3.36 l -13.855,-1.25 v 6.82 h -0.313 c -2.312,-3.26 -6.718,-7.45 -14.914,-7.45 -10.281,0 -19.937,6.61 -19.937,24.87 0,19.53 13.648,28.35 27.09,28.35 3.035,0 5.664,-0.52 7.449,-0.95 v 18.38 l -7.449,1.05 c 0,0 -0.11,0.73 -0.11,1.15 0,1.79 1.36,3.05 3.875,3.25 l 14.282,1.37 v -70.34"
         style="fill:#231f20;fill-opacity:1;fill-rule:nonzero;stroke:none"
         id="path24" />
      <path
         d="m 577.957,1493.47 c 0.203,0.95 0.52,2.74 0.52,4.52 0,5.78 -2.09,10.71 -8.184,10.71 -6.191,0 -9.863,-4.93 -10.605,-15.23 z m -18.367,-5.56 c 0.098,-13.02 6.289,-19.11 15.32,-19.11 6.719,0 10.496,2.63 13.125,4.83 1.043,-0.84 1.574,-2.62 1.574,-3.57 0,-2.62 -6.933,-8.6 -18.586,-8.6 -12.91,0 -22.57,7.34 -22.57,25.61 0,18.27 11.027,27.61 22.992,27.61 11.864,0 17.852,-7.24 17.852,-17.74 0,-2.73 -0.527,-6.41 -1.262,-9.03 H 559.59"
         style="fill:#231f20;fill-opacity:1;fill-rule:nonzero;stroke:none"
         id="path26" />
      <path
         d="m 614.078,1505.02 h 0.317 c 2.207,3.57 6.089,9.66 12.91,9.66 4.937,0 7.246,-2.31 7.246,-5.56 0,-2.32 -1.047,-4.31 -1.887,-5.35 -0.84,0.41 -3.469,1.57 -7.039,1.57 -5.773,0 -8.715,-2.31 -10.922,-5.36 v -31.6 l 7.563,-1.36 c 1.054,-0.21 1.472,-0.53 1.472,-1.37 0,-1.04 -0.84,-2.62 -1.043,-2.94 h -25.414 c 0,0 -0.105,0.63 -0.105,0.95 0,1.89 1.262,2.73 3.254,3.47 l 3.679,1.25 v 38.85 l -7.453,1.15 c 0,0 -0.105,0.63 -0.105,1.05 0,1.78 1.355,3.05 3.879,3.25 l 14.273,1.37 -0.625,-9.03"
         style="fill:#231f20;fill-opacity:1;fill-rule:nonzero;stroke:none"
         id="path28" />
      <path
         d="m 669.82,1507.64 h -14.375 v -30.65 c 0,-4.72 1.465,-8.61 6.723,-8.61 4.09,0 7.449,1.79 8.289,2.52 0.527,-0.84 0.945,-2.41 0.945,-3.46 0,-1.05 -3.668,-5.98 -13.23,-5.98 -9.551,0 -13.328,5.56 -13.328,13.64 v 32.54 h -7.871 c 0,0 -0.11,0.64 -0.11,0.95 0,2 1.262,3.15 3.25,3.57 l 5.149,1.26 2.414,14.17 h 7.769 v -14.17 h 15.539 l -1.164,-5.78"
         style="fill:#231f20;fill-opacity:1;fill-rule:nonzero;stroke:none"
         id="path30" />
      <path
         d="m 732.93,1505.23 c -1.582,1.47 -4.414,3.15 -8.821,3.15 -8.504,0 -14.804,-6.09 -14.804,-19.95 0,-13.54 5.879,-19 12.91,-19 6.094,0 9.348,2.84 10.715,4.41 z m 10.601,-36.64 7.66,-1.05 c 0,0 0.106,-0.41 0.106,-0.84 0,-1.89 -1.367,-3.15 -3.887,-3.36 l -13.855,-1.25 v 6.82 h -0.317 c -2.3,-3.26 -6.715,-7.45 -14.898,-7.45 -10.293,0 -19.953,6.61 -19.953,24.87 0,19.53 13.64,28.35 27.082,28.35 3.047,0 5.672,-0.52 7.461,-0.95 v 18.38 l -7.461,1.05 c 0,0 -0.102,0.73 -0.102,1.15 0,1.79 1.367,3.05 3.891,3.25 l 14.273,1.37 v -70.34"
         style="fill:#231f20;fill-opacity:1;fill-rule:nonzero;stroke:none"
         id="path32" />
      <path
         d="m 804.113,1468.59 7.657,-1.05 c 0,0 0.109,-0.41 0.109,-0.84 0,-1.89 -1.367,-3.15 -3.887,-3.36 l -13.859,-1.25 v 6.92 h -0.203 c -1.68,-2.2 -6.293,-7.55 -15.532,-7.55 -11.23,0 -16.488,6.61 -16.488,18.99 v 26.78 l -7.449,1.15 c 0,0 -0.106,0.63 -0.106,1.05 0,1.78 1.368,3.05 3.883,3.25 l 14.282,1.37 v -33.07 c 0,-9.55 5.039,-11.76 9.656,-11.76 5.351,0 8.91,2.31 11.332,5.04 v 32.97 l -7.453,1.15 c 0,0 -0.102,0.63 -0.102,1.05 0,1.78 1.367,3.05 3.891,3.25 l 14.269,1.37 v -45.46"
         style="fill:#231f20;fill-opacity:1;fill-rule:nonzero;stroke:none"
         id="path34" />
      <path
         d="m 833.832,1505.02 h 0.313 c 2.207,3.57 6.093,9.66 12.918,9.66 4.933,0 7.238,-2.31 7.238,-5.56 0,-2.32 -1.047,-4.31 -1.887,-5.35 -0.84,0.41 -3.465,1.57 -7.031,1.57 -5.781,0 -8.719,-2.31 -10.918,-5.36 v -31.6 l 7.558,-1.36 c 1.047,-0.21 1.465,-0.53 1.465,-1.37 0,-1.04 -0.84,-2.62 -1.054,-2.94 h -25.399 c 0,0 -0.109,0.63 -0.109,0.95 0,1.89 1.262,2.73 3.262,3.47 l 3.671,1.25 v 38.85 l -7.461,1.15 c 0,0 -0.097,0.63 -0.097,1.05 0,1.78 1.367,3.05 3.887,3.25 l 14.277,1.37 -0.633,-9.03"
         style="fill:#231f20;fill-opacity:1;fill-rule:nonzero;stroke:none"
         id="path36" />
      <path
         d="m 882.648,1508.38 c -7.031,0 -13.125,-5.04 -13.125,-18.79 0,-13.23 5.149,-20.89 15.02,-20.89 6.504,0 10.285,3.35 11.965,5.03 0.945,-0.94 1.68,-2.62 1.68,-3.56 0,-2.63 -5.774,-8.71 -17.317,-8.71 -13.652,0 -22.469,8.6 -22.469,25.93 0,17.74 11.864,27.29 26.036,27.29 11.55,0 14.48,-5.67 14.48,-8.72 0,-2.83 -1.355,-5.45 -5.352,-6.29 -1.57,3.67 -3.984,8.71 -10.918,8.71"
         style="fill:#231f20;fill-opacity:1;fill-rule:nonzero;stroke:none"
         id="path38" />
      <path
         d="m 921.613,1507.13 h 0.207 c 2.098,2.51 7.137,7.55 16.172,7.55 10.496,0 16.473,-6.2 16.473,-18.47 v -27.83 l 6.094,-1.36 c 1.054,-0.21 1.464,-0.53 1.464,-1.37 0,-1.04 -0.839,-2.62 -1.043,-2.94 h -23.828 c 0,0 -0.109,0.63 -0.109,0.95 0,1.89 1.262,2.83 3.254,3.47 l 3.465,1.25 v 26.57 c 0,8.92 -4.824,11.65 -10.184,11.65 -6.504,0 -9.973,-2.83 -11.965,-4.83 v -33.39 l 5.879,-1.36 c 1.047,-0.21 1.465,-0.53 1.465,-1.37 0,-1.04 -0.73,-2.62 -1.043,-2.94 h -23.84 c 0,0 -0.097,0.63 -0.097,0.95 0,1.89 1.261,2.83 3.253,3.47 l 3.672,1.25 v 63.73 l -7.453,1.05 c 0,0 -0.105,0.73 -0.105,1.15 0,1.79 1.367,3.05 3.886,3.25 l 14.383,1.37 v -31.8"
         style="fill:#231f20;fill-opacity:1;fill-rule:nonzero;stroke:none"
         id="path40" />
      <path
         d="m 975.578,1461.35 c -3.672,0 -6.504,2.52 -6.504,6.4 0,3.99 2.832,6.51 6.504,6.51 3.684,0 6.621,-2.52 6.621,-6.51 0,-3.88 -2.937,-6.4 -6.621,-6.4 z m 0,40.42 c -3.672,0 -6.504,2.52 -6.504,6.4 0,3.99 2.832,6.51 6.504,6.51 3.684,0 6.621,-2.52 6.621,-6.51 0,-3.88 -2.937,-6.4 -6.621,-6.4"
         style="fill:#231f20;fill-opacity:1;fill-rule:nonzero;stroke:none"
         id="path42" />
      <path
         d="m 260.125,363.828 c -8.496,-0.418 -13.328,-3.469 -13.328,-9.027 0,-4.41 2.519,-7.352 6.824,-7.352 4.309,0 7.559,2.832 8.926,4.512 v 11.969 z m 13.027,-11.449 c 0,-4.199 1.575,-5.457 3.36,-5.457 2.414,0 3.672,1.258 3.984,1.789 0.527,-0.742 1.262,-2.211 1.262,-3.152 0,-1.368 -2.727,-5.457 -9.555,-5.457 -4.832,0 -7.879,2.097 -8.816,7.347 h -0.215 c -1.152,-2 -5.039,-7.558 -13.75,-7.558 -7.977,0 -13.652,5.461 -13.652,13.75 0,11.23 12.285,15.429 24.043,15.429 h 2.734 v 4.731 c 0,9.551 -2.52,13.328 -9.031,13.328 -2.414,0 -4.512,-0.731 -5.356,-1.047 -0.945,-2 -1.785,-5.672 -2.312,-9.23 0,0 -1.571,-0.114 -2.41,-0.114 -3.567,0 -5.559,1.684 -5.559,4.934 0,6.508 8.605,11.449 18.367,11.449 11.547,0 16.906,-6.301 16.906,-18.172 v -22.57"
         style="fill:#231f20;fill-opacity:1;fill-rule:nonzero;stroke:none"
         id="path44" />
      <path
         d="m 333.094,347.031 7.668,-1.051 c 0,0 0.105,-0.421 0.105,-0.839 0,-1.891 -1.367,-3.153 -3.887,-3.36 l -13.859,-1.261 v 6.929 h -0.203 c -1.68,-2.211 -6.301,-7.558 -15.535,-7.558 -11.242,0 -16.485,6.609 -16.485,19 v 26.769 l -7.453,1.16 c 0,0 -0.105,0.621 -0.105,1.039 0,1.789 1.363,3.051 3.887,3.262 l 14.277,1.359 v -33.07 c 0,-9.551 5.039,-11.75 9.656,-11.75 5.352,0 8.926,2.309 11.336,5.039 v 32.961 l -7.449,1.16 c 0,0 -0.106,0.621 -0.106,1.039 0,1.789 1.356,3.051 3.875,3.262 l 14.278,1.359 v -45.449"
         style="fill:#231f20;fill-opacity:1;fill-rule:nonzero;stroke:none"
         id="path46" />
      <path
         d="M 376.473,386.082 H 363.66 V 346.82 l 7.141,-1.371 c 1.043,-0.211 1.472,-0.519 1.472,-1.359 0,-1.051 -0.742,-2.629 -1.054,-2.942 h -24.981 c 0,0 -0.105,0.633 -0.105,0.942 0,1.89 1.258,2.73 3.25,3.469 l 3.574,1.261 v 39.262 h -7.773 c 0,0 -0.11,0.629 -0.11,0.938 0,2 1.262,3.05 3.254,3.582 l 4.629,1.257 v 1.039 c 0,16.903 10.281,25.102 19.316,25.102 5.247,0 7.344,-2.32 7.344,-5.57 0,-2.629 -1.57,-4.09 -3.144,-4.93 -0.946,1.051 -3.684,3.039 -6.934,3.039 -4.512,0 -6.094,-2.519 -6.094,-8.711 0,-3.258 0.215,-9.969 0.215,-9.969 h 13.965 l -1.152,-5.777"
         style="fill:#231f20;fill-opacity:1;fill-rule:nonzero;stroke:none"
         id="path48" />
      <path
         d="m 394.004,376.211 c 0,-8.289 4.195,-11.539 9.449,-11.539 5.664,0 9.758,3.25 9.758,11.539 0,7.449 -4.094,11.23 -9.551,11.23 -5.461,0 -9.656,-3.14 -9.656,-11.23 z m 4.617,-34.641 c -1.465,0 -2.723,0.102 -3.887,0.211 -2.722,-1.57 -4.511,-4.203 -4.511,-7.769 0,-5.461 3.359,-8.922 11.023,-8.922 10.188,0 16.488,4.719 16.488,10.281 0,4.309 -2.414,6.199 -7.773,6.199 z m 30.234,44.301 h -8.496 c 1.993,-2.633 3.25,-5.769 3.25,-9.551 0,-11.129 -9.238,-17.429 -20.679,-17.429 -1.789,0 -3.36,0.211 -4.934,0.519 -1.473,-0.84 -2.937,-2.301 -2.937,-4.719 0,-2.519 1.675,-3.671 5.242,-3.671 h 12.179 c 9.657,0 15.118,-4.411 15.118,-11.969 0,-10.5 -10.285,-20.153 -28.028,-20.153 -12.914,0 -19.211,4.512 -19.211,12.172 0,7.352 5.774,10.821 9.551,11.969 v 0.211 c -2.734,1.469 -4.305,3.988 -4.305,7.352 0,6.089 5.567,8.918 7.555,9.968 v 0.211 c -5.879,2.629 -9.656,7.981 -9.656,15.539 0,11.02 9.238,16.801 19.949,16.801 2.832,0 5.559,-0.422 8.188,-1.262 h 18.367 l -1.153,-5.988"
         style="fill:#231f20;fill-opacity:1;fill-rule:nonzero;stroke:none"
         id="path50" />
      <path
         d="m 451.121,383.461 h 0.313 c 2.207,3.559 6.093,9.66 12.91,9.66 4.941,0 7.246,-2.32 7.246,-5.57 0,-2.313 -1.043,-4.313 -1.887,-5.352 -0.84,0.422 -3.465,1.571 -7.039,1.571 -5.769,0 -8.711,-2.309 -10.918,-5.348 V 346.82 l 7.559,-1.371 c 1.054,-0.211 1.472,-0.519 1.472,-1.359 0,-1.051 -0.836,-2.629 -1.043,-2.942 h -25.41 c 0,0 -0.105,0.633 -0.105,0.942 0,1.89 1.258,2.73 3.25,3.469 l 3.683,1.261 v 38.84 l -7.453,1.16 c 0,0 -0.105,0.621 -0.105,1.039 0,1.789 1.355,3.051 3.875,3.262 l 14.277,1.359 -0.625,-9.019"
         style="fill:#231f20;fill-opacity:1;fill-rule:nonzero;stroke:none"
         id="path52" />
      <path
         d="m 523.68,347.031 7.656,-1.051 c 0,0 0.109,-0.421 0.109,-0.839 0,-1.891 -1.371,-3.153 -3.886,-3.36 l -13.86,-1.261 v 6.929 h -0.207 c -1.676,-2.211 -6.297,-7.558 -15.535,-7.558 -11.23,0 -16.484,6.609 -16.484,19 v 26.769 l -7.45,1.16 c 0,0 -0.109,0.621 -0.109,1.039 0,1.789 1.367,3.051 3.887,3.262 l 14.277,1.359 v -33.07 c 0,-9.551 5.039,-11.75 9.656,-11.75 5.356,0 8.918,2.309 11.34,5.039 v 32.961 l -7.461,1.16 c 0,0 -0.097,0.621 -0.097,1.039 0,1.789 1.367,3.051 3.886,3.262 l 14.278,1.359 v -45.449"
         style="fill:#231f20;fill-opacity:1;fill-rule:nonzero;stroke:none"
         id="path54" />
      <path
         d="m 586.883,346.82 6.191,-1.371 c 1.055,-0.211 1.477,-0.519 1.477,-1.359 0,-1.051 -0.84,-2.629 -1.047,-2.942 h -23.836 c 0,0 -0.109,0.633 -0.109,0.942 0,1.89 1.269,2.84 3.261,3.469 l 3.457,1.261 v 26.559 c 0,8.922 -5.039,11.652 -10.175,11.652 -5.989,0 -9.872,-2.832 -12.071,-4.621 v -33.59 l 5.977,-1.371 c 1.055,-0.211 1.476,-0.519 1.476,-1.359 0,-1.051 -0.839,-2.629 -1.054,-2.942 h -23.828 c 0,0 -0.11,0.633 -0.11,0.942 0,1.89 1.262,2.73 3.262,3.469 l 3.672,1.261 v 38.84 l -7.461,1.16 c 0,0 -0.098,0.621 -0.098,1.039 0,1.789 1.367,3.051 3.887,3.262 l 14.277,1.359 -0.633,-7.339 h 0.313 c 2.84,3.039 7.559,7.98 17.215,7.98 10.293,0 15.957,-6.621 15.957,-18.48 V 346.82"
         style="fill:#231f20;fill-opacity:1;fill-rule:nonzero;stroke:none"
         id="path56" />
      <path
         d="m 634.449,383.66 c -1.57,1.481 -4.414,3.16 -8.816,3.16 -8.504,0 -14.805,-6.101 -14.805,-19.949 0,-13.543 5.879,-19 12.91,-19 6.094,0 9.348,2.828 10.711,4.41 z m 10.598,-36.629 7.668,-1.051 c 0,0 0.105,-0.421 0.105,-0.839 0,-1.891 -1.367,-3.153 -3.886,-3.36 l -13.86,-1.261 v 6.82 h -0.308 c -2.317,-3.25 -6.719,-7.449 -14.914,-7.449 -10.282,0 -19.942,6.609 -19.942,24.879 0,19.531 13.653,28.351 27.09,28.351 3.035,0 5.664,-0.531 7.449,-0.949 v 18.367 L 627,411.59 c 0,0 -0.105,0.73 -0.105,1.148 0,1.793 1.355,3.051 3.875,3.262 l 14.277,1.359 v -70.328"
         style="fill:#231f20;fill-opacity:1;fill-rule:nonzero;stroke:none"
         id="path58" />
      <path
         d="m 710.152,371.898 c 0.207,0.954 0.52,2.743 0.52,4.532 0,5.769 -2.09,10.699 -8.184,10.699 -6.191,0 -9.863,-4.93 -10.605,-15.231 z m -18.367,-5.546 c 0.098,-13.024 6.289,-19.114 15.324,-19.114 6.715,0 10.496,2.621 13.125,4.832 1.043,-0.84 1.571,-2.629 1.571,-3.57 0,-2.629 -6.934,-8.609 -18.582,-8.609 -12.91,0 -22.571,7.347 -22.571,25.621 0,18.258 11.028,27.609 22.989,27.609 11.867,0 17.851,-7.25 17.851,-17.75 0,-2.723 -0.527,-6.41 -1.258,-9.019 h -28.449"
         style="fill:#231f20;fill-opacity:1;fill-rule:nonzero;stroke:none"
         id="path60" />
      <path
         d="m 741.543,402.879 c -3.879,0 -6.828,2.621 -6.828,6.723 0,3.98 2.949,6.718 6.828,6.718 3.777,0 6.934,-2.738 6.934,-6.718 0,-4.102 -3.157,-6.723 -6.934,-6.723 z m 5.359,-56.059 6.192,-1.371 c 1.047,-0.211 1.465,-0.519 1.465,-1.359 0,-1.051 -0.84,-2.629 -1.043,-2.942 h -24.043 c 0,0 -0.11,0.633 -0.11,0.942 0,1.89 1.262,2.73 3.262,3.469 l 3.672,1.261 v 38.84 l -7.461,1.16 c 0,0 -0.098,0.621 -0.098,1.039 0,1.789 1.367,3.051 3.887,3.262 l 14.277,1.359 v -45.66"
         style="fill:#231f20;fill-opacity:1;fill-rule:nonzero;stroke:none"
         id="path62" />
      <path
         d="m 810.203,346.82 6.192,-1.371 c 1.054,-0.211 1.472,-0.519 1.472,-1.359 0,-1.051 -0.84,-2.629 -1.043,-2.942 h -23.84 c 0,0 -0.105,0.633 -0.105,0.942 0,1.89 1.269,2.84 3.262,3.469 l 3.457,1.261 v 26.559 c 0,8.922 -5.039,11.652 -10.176,11.652 -5.984,0 -9.871,-2.832 -12.07,-4.621 v -33.59 l 5.976,-1.371 c 1.055,-0.211 1.477,-0.519 1.477,-1.359 0,-1.051 -0.84,-2.629 -1.055,-2.942 h -23.828 c 0,0 -0.109,0.633 -0.109,0.942 0,1.89 1.257,2.73 3.261,3.469 l 3.672,1.261 v 38.84 l -7.461,1.16 c 0,0 -0.097,0.621 -0.097,1.039 0,1.789 1.367,3.051 3.886,3.262 l 14.278,1.359 -0.633,-7.339 h 0.308 c 2.844,3.039 7.563,7.98 17.219,7.98 10.293,0 15.957,-6.621 15.957,-18.48 V 346.82"
         style="fill:#231f20;fill-opacity:1;fill-rule:nonzero;stroke:none"
         id="path64" />
      <path
         d="m 852.742,371.898 c 0.203,0.954 0.528,2.743 0.528,4.532 0,5.769 -2.11,10.699 -8.196,10.699 -6.187,0 -9.871,-4.93 -10.601,-15.231 z m -18.379,-5.546 c 0.11,-13.024 6.309,-19.114 15.332,-19.114 6.719,0 10.5,2.621 13.125,4.832 1.043,-0.84 1.575,-2.629 1.575,-3.57 0,-2.629 -6.926,-8.609 -18.586,-8.609 -12.911,0 -22.571,7.347 -22.571,25.621 0,18.258 11.028,27.609 22.992,27.609 11.864,0 17.848,-7.25 17.848,-17.75 0,-2.723 -0.523,-6.41 -1.258,-9.019 h -28.457"
         style="fill:#231f20;fill-opacity:1;fill-rule:nonzero;stroke:none"
         id="path66" />
      <path
         d="m 896.941,385.34 c -1.152,0.84 -3.781,2.101 -6.933,2.101 -3.457,0 -7.031,-1.461 -7.031,-5.882 0,-4.618 4.929,-7.34 9.968,-10.278 6.301,-3.781 13.02,-7.871 13.02,-16.269 0,-8.614 -7.141,-15.121 -18.684,-15.121 -5.879,0 -11.129,1.781 -13.328,3.148 -0.43,2.621 -0.742,5.352 -0.742,8.082 0,4.199 1.152,5.879 4.309,5.879 0.527,0 1.367,-0.109 1.367,-0.109 l 2.195,-8.922 c 1.055,-0.731 4.102,-2.098 7.148,-2.098 5.137,0 8.399,2 8.399,6.41 0,4.508 -5.039,7.028 -9.766,9.969 -6.406,4.102 -12.812,8.191 -12.812,17.211 0,8.199 7.14,13.66 17.219,13.66 6.089,0 10.398,-2.101 12.285,-3.891 0.203,-1.468 0.418,-3.671 0.418,-5.769 0,-3.672 -0.735,-6.102 -4.512,-6.102 -0.527,0 -1.262,0.11 -1.262,0.11 l -1.258,7.871"
         style="fill:#231f20;fill-opacity:1;fill-rule:nonzero;stroke:none"
         id="path68" />
      <path
         d="m 962.566,374.641 h -6.933 v -27.09 h 6.308 c 12.278,0 17.735,5.777 17.735,13.961 0,7.777 -5.774,13.129 -17.11,13.129 z m -1.257,32.539 h -5.676 v -26.461 h 5.566 c 11.973,0 17.012,5.883 17.012,13.34 0,8.613 -5.352,13.121 -16.902,13.121 z m 13.433,-28.559 v -0.199 c 10.188,-1.684 16.906,-7.453 16.906,-17.012 0,-11.762 -9.66,-20.262 -28.554,-20.262 h -26.668 c 0,0 -0.11,0.633 -0.11,1.153 0,1.679 0.84,3.148 3.575,3.781 l 4.414,1.047 v 60.68 l -6.407,1.472 c -1.054,0.207 -1.472,0.52 -1.472,1.16 0,0.938 0.73,2.2 1.16,3.141 h 24.668 c 18.684,0 27.605,-6.613 27.605,-18.262 0,-9.98 -6.082,-14.699 -15.117,-16.699"
         style="fill:#231f20;fill-opacity:1;fill-rule:nonzero;stroke:none"
         id="path70" />
      <path
         d="m 1030.71,371.898 c 0.21,0.954 0.53,2.743 0.53,4.532 0,5.769 -2.11,10.699 -8.2,10.699 -6.19,0 -9.87,-4.93 -10.6,-15.231 z m -18.38,-5.546 c 0.11,-13.024 6.31,-19.114 15.33,-19.114 6.72,0 10.5,2.621 13.13,4.832 1.04,-0.84 1.57,-2.629 1.57,-3.57 0,-2.629 -6.92,-8.609 -18.58,-8.609 -12.91,0 -22.57,7.347 -22.57,25.621 0,18.258 11.02,27.609 22.99,27.609 11.86,0 17.85,-7.25 17.85,-17.75 0,-2.723 -0.53,-6.41 -1.26,-9.019 h -28.46"
         style="fill:#231f20;fill-opacity:1;fill-rule:nonzero;stroke:none"
         id="path72" />
      <path
         d="m 1074.92,385.34 c -1.16,0.84 -3.78,2.101 -6.93,2.101 -3.47,0 -7.04,-1.461 -7.04,-5.882 0,-4.618 4.94,-7.34 9.98,-10.278 6.29,-3.781 13.01,-7.871 13.01,-16.269 0,-8.614 -7.14,-15.121 -18.68,-15.121 -5.88,0 -11.13,1.781 -13.34,3.148 -0.41,2.621 -0.73,5.352 -0.73,8.082 0,4.199 1.16,5.879 4.31,5.879 0.52,0 1.36,-0.109 1.36,-0.109 l 2.21,-8.922 c 1.04,-0.731 4.09,-2.098 7.13,-2.098 5.15,0 8.4,2 8.4,6.41 0,4.508 -5.04,7.028 -9.76,9.969 -6.4,4.102 -12.81,8.191 -12.81,17.211 0,8.199 7.14,13.66 17.22,13.66 6.09,0 10.39,-2.101 12.28,-3.891 0.22,-1.468 0.42,-3.671 0.42,-5.769 0,-3.672 -0.73,-6.102 -4.51,-6.102 -0.53,0 -1.26,0.11 -1.26,0.11 l -1.26,7.871"
         style="fill:#231f20;fill-opacity:1;fill-rule:nonzero;stroke:none"
         id="path74" />
      <path
         d="m 1116.49,386.82 c -7.03,0 -13.12,-5.039 -13.12,-18.789 0,-13.23 5.14,-20.902 15.02,-20.902 6.5,0 10.28,3.359 11.96,5.043 0.95,-0.942 1.68,-2.621 1.68,-3.57 0,-2.622 -5.77,-8.711 -17.32,-8.711 -13.65,0 -22.47,8.609 -22.47,25.929 0,17.739 11.87,27.301 26.04,27.301 11.55,0 14.48,-5.68 14.48,-8.723 0,-2.839 -1.36,-5.449 -5.35,-6.289 -1.57,3.672 -3.98,8.711 -10.92,8.711"
         style="fill:#231f20;fill-opacity:1;fill-rule:nonzero;stroke:none"
         id="path76" />
      <path
         d="m 1155.46,385.559 h 0.2 c 2.1,2.519 7.14,7.562 16.17,7.562 10.5,0 16.48,-6.199 16.48,-18.48 V 346.82 l 6.09,-1.371 c 1.06,-0.211 1.47,-0.519 1.47,-1.359 0,-1.051 -0.84,-2.629 -1.05,-2.942 h -23.83 c 0,0 -0.1,0.633 -0.1,0.942 0,1.89 1.26,2.84 3.25,3.469 l 3.47,1.261 v 26.559 c 0,8.922 -4.83,11.652 -10.19,11.652 -6.5,0 -9.97,-2.832 -11.96,-4.82 V 346.82 l 5.88,-1.371 c 1.04,-0.211 1.46,-0.519 1.46,-1.359 0,-1.051 -0.73,-2.629 -1.04,-2.942 h -23.84 c 0,0 -0.1,0.633 -0.1,0.942 0,1.89 1.26,2.84 3.25,3.469 l 3.67,1.261 v 63.719 l -7.45,1.051 c 0,0 -0.1,0.73 -0.1,1.148 0,1.793 1.36,3.051 3.88,3.262 l 14.39,1.359 v -31.8"
         style="fill:#231f20;fill-opacity:1;fill-rule:nonzero;stroke:none"
         id="path78" />
      <path
         d="m 1217.19,346.82 6.08,-1.371 c 1.05,-0.211 1.47,-0.519 1.47,-1.359 0,-1.051 -0.73,-2.629 -1.04,-2.942 h -23.95 c 0,0 -0.09,0.633 -0.09,0.942 0,1.89 1.26,2.84 3.25,3.469 l 3.67,1.261 v 63.719 l -7.45,1.051 c 0,0 -0.11,0.73 -0.11,1.148 0,1.793 1.37,3.051 3.89,3.262 l 14.28,1.359 V 346.82"
         style="fill:#231f20;fill-opacity:1;fill-rule:nonzero;stroke:none"
         id="path80" />
      <path
         d="m 1278.19,347.031 7.66,-1.051 c 0,0 0.1,-0.421 0.1,-0.839 0,-1.891 -1.36,-3.153 -3.88,-3.36 l -13.86,-1.261 v 6.929 h -0.2 c -1.68,-2.211 -6.3,-7.558 -15.54,-7.558 -11.23,0 -16.49,6.609 -16.49,19 v 26.769 l -7.45,1.16 c 0,0 -0.1,0.621 -0.1,1.039 0,1.789 1.36,3.051 3.88,3.262 l 14.28,1.359 v -33.07 c 0,-9.551 5.04,-11.75 9.66,-11.75 5.35,0 8.91,2.309 11.34,5.039 v 32.961 l -7.47,1.16 c 0,0 -0.09,0.621 -0.09,1.039 0,1.789 1.36,3.051 3.88,3.262 l 14.28,1.359 v -45.449"
         style="fill:#231f20;fill-opacity:1;fill-rule:nonzero;stroke:none"
         id="path82" />
      <path
         d="m 1315.99,385.34 c -1.16,0.84 -3.78,2.101 -6.93,2.101 -3.47,0 -7.03,-1.461 -7.03,-5.882 0,-4.618 4.93,-7.34 9.97,-10.278 6.3,-3.781 13.02,-7.871 13.02,-16.269 0,-8.614 -7.14,-15.121 -18.68,-15.121 -5.88,0 -11.14,1.781 -13.34,3.148 -0.41,2.621 -0.74,5.352 -0.74,8.082 0,4.199 1.17,5.879 4.31,5.879 0.53,0 1.37,-0.109 1.37,-0.109 l 2.2,-8.922 c 1.05,-0.731 4.1,-2.098 7.13,-2.098 5.15,0 8.4,2 8.4,6.41 0,4.508 -5.04,7.028 -9.75,9.969 -6.41,4.102 -12.82,8.191 -12.82,17.211 0,8.199 7.14,13.66 17.22,13.66 6.09,0 10.39,-2.101 12.29,-3.891 0.21,-1.468 0.42,-3.671 0.42,-5.769 0,-3.672 -0.74,-6.102 -4.52,-6.102 -0.52,0 -1.26,0.11 -1.26,0.11 l -1.26,7.871"
         style="fill:#231f20;fill-opacity:1;fill-rule:nonzero;stroke:none"
         id="path84" />
      <path
         d="m 1357.36,385.34 c -1.16,0.84 -3.78,2.101 -6.93,2.101 -3.47,0 -7.03,-1.461 -7.03,-5.882 0,-4.618 4.93,-7.34 9.97,-10.278 6.3,-3.781 13.01,-7.871 13.01,-16.269 0,-8.614 -7.13,-15.121 -18.68,-15.121 -5.88,0 -11.13,1.781 -13.34,3.148 -0.41,2.621 -0.73,5.352 -0.73,8.082 0,4.199 1.16,5.879 4.31,5.879 0.52,0 1.36,-0.109 1.36,-0.109 l 2.21,-8.922 c 1.05,-0.731 4.09,-2.098 7.13,-2.098 5.15,0 8.4,2 8.4,6.41 0,4.508 -5.04,7.028 -9.76,9.969 -6.4,4.102 -12.81,8.191 -12.81,17.211 0,8.199 7.14,13.66 17.22,13.66 6.09,0 10.39,-2.101 12.28,-3.891 0.22,-1.468 0.42,-3.671 0.42,-5.769 0,-3.672 -0.73,-6.102 -4.51,-6.102 -0.53,0 -1.26,0.11 -1.26,0.11 l -1.26,7.871"
         style="fill:#231f20;fill-opacity:1;fill-rule:nonzero;stroke:none"
         id="path86" />
      <path
         d="m 1404.19,371.898 c 0.2,0.954 0.52,2.743 0.52,4.532 0,5.769 -2.1,10.699 -8.19,10.699 -6.19,0 -9.87,-4.93 -10.6,-15.231 z m -18.38,-5.546 c 0.11,-13.024 6.31,-19.114 15.33,-19.114 6.72,0 10.5,2.621 13.13,4.832 1.04,-0.84 1.57,-2.629 1.57,-3.57 0,-2.629 -6.93,-8.609 -18.59,-8.609 -12.91,0 -22.56,7.347 -22.56,25.621 0,18.258 11.02,27.609 22.98,27.609 11.87,0 17.86,-7.25 17.86,-17.75 0,-2.723 -0.53,-6.41 -1.26,-9.019 h -28.46"
         style="fill:#231f20;fill-opacity:1;fill-rule:nonzero;stroke:none"
         id="path88" />
      <path
         d="m 1448.4,385.34 c -1.17,0.84 -3.78,2.101 -6.94,2.101 -3.46,0 -7.03,-1.461 -7.03,-5.882 0,-4.618 4.93,-7.34 9.97,-10.278 6.3,-3.781 13.02,-7.871 13.02,-16.269 0,-8.614 -7.14,-15.121 -18.68,-15.121 -5.88,0 -11.13,1.781 -13.34,3.148 -0.41,2.621 -0.73,5.352 -0.73,8.082 0,4.199 1.16,5.879 4.3,5.879 0.53,0 1.37,-0.109 1.37,-0.109 l 2.21,-8.922 c 1.04,-0.731 4.09,-2.098 7.13,-2.098 5.14,0 8.39,2 8.39,6.41 0,4.508 -5.04,7.028 -9.75,9.969 -6.41,4.102 -12.81,8.191 -12.81,17.211 0,8.199 7.13,13.66 17.21,13.66 6.1,0 10.39,-2.101 12.29,-3.891 0.21,-1.468 0.42,-3.671 0.42,-5.769 0,-3.672 -0.74,-6.102 -4.51,-6.102 -0.53,0 -1.26,0.11 -1.26,0.11 l -1.26,7.871"
         style="fill:#231f20;fill-opacity:1;fill-rule:nonzero;stroke:none"
         id="path90" />
      <path
         d="m 270.945,263.66 c -1.582,1.469 -4.414,3.149 -8.816,3.149 -8.508,0 -14.809,-6.09 -14.809,-19.938 0,-13.551 5.879,-19.012 12.914,-19.012 6.09,0 9.344,2.832 10.711,4.422 z m 10.606,-36.64 7.656,-1.051 c 0,0 0.109,-0.41 0.109,-0.84 0,-1.891 -1.371,-3.149 -3.886,-3.359 l -13.86,-1.25 v 6.812 h -0.312 c -2.305,-3.25 -6.719,-7.453 -14.903,-7.453 -10.292,0 -19.953,6.609 -19.953,24.891 0,19.519 13.645,28.339 27.082,28.339 3.047,0 5.672,-0.519 7.461,-0.949 v 18.379 l -7.461,1.043 c 0,0 -0.097,0.727 -0.097,1.156 0,1.782 1.367,3.043 3.886,3.262 l 14.278,1.352 V 227.02"
         style="fill:#231f20;fill-opacity:1;fill-rule:nonzero;stroke:none"
         id="path92" />
      <path
         d="m 324.813,251.898 c 0.207,0.942 0.527,2.731 0.527,4.524 0,5.769 -2.11,10.699 -8.192,10.699 -6.195,0 -9.875,-4.93 -10.605,-15.223 z m -18.379,-5.558 c 0.109,-13.02 6.308,-19.102 15.332,-19.102 6.718,0 10.5,2.614 13.125,4.821 1.047,-0.84 1.574,-2.629 1.574,-3.571 0,-2.617 -6.926,-8.609 -18.586,-8.609 -12.91,0 -22.566,7.359 -22.566,25.621 0,18.262 11.023,27.609 22.988,27.609 11.863,0 17.851,-7.238 17.851,-17.75 0,-2.718 -0.531,-6.39 -1.261,-9.019 h -28.457"
         style="fill:#231f20;fill-opacity:1;fill-rule:nonzero;stroke:none"
         id="path94" />
      <path
         d="m 369.012,265.34 c -1.153,0.84 -3.778,2.101 -6.934,2.101 -3.457,0 -7.031,-1.472 -7.031,-5.882 0,-4.618 4.933,-7.348 9.973,-10.289 6.296,-3.782 13.015,-7.872 13.015,-16.27 0,-8.602 -7.137,-15.121 -18.68,-15.121 -5.878,0 -11.132,1.793 -13.332,3.16 -0.429,2.609 -0.742,5.352 -0.742,8.07 0,4.2 1.153,5.879 4.309,5.879 0.523,0 1.363,-0.097 1.363,-0.097 l 2.199,-8.922 c 1.055,-0.731 4.102,-2.098 7.149,-2.098 5.137,0 8.398,1.988 8.398,6.41 0,4.508 -5.039,7.028 -9.765,9.969 -6.407,4.09 -12.813,8.18 -12.813,17.211 0,8.187 7.141,13.648 17.219,13.648 6.094,0 10.398,-2.097 12.281,-3.879 0.207,-1.48 0.422,-3.679 0.422,-5.781 0,-3.668 -0.73,-6.09 -4.512,-6.09 -0.527,0 -1.258,0.11 -1.258,0.11 l -1.261,7.871"
         style="fill:#231f20;fill-opacity:1;fill-rule:nonzero;stroke:none"
         id="path96" />
      <path
         d="m 431.902,287.18 h -4.199 v -59.629 h 4.199 c 19.422,0 30.559,10.179 30.559,30.551 0,19.628 -11.242,29.078 -30.559,29.078 z m 0.325,-66.039 h -23.735 c 0,0 -0.105,0.629 -0.105,1.16 0,1.679 0.84,3.148 3.574,3.769 l 4.414,1.059 v 60.672 l -6.406,1.48 c -1.055,0.199 -1.477,0.52 -1.477,1.149 0,0.949 0.735,2.211 1.164,3.152 h 22.571 c 26.453,0 42.3,-9.871 42.3,-35.172 0,-25.512 -15.75,-37.269 -42.3,-37.269"
         style="fill:#231f20;fill-opacity:1;fill-rule:nonzero;stroke:none"
         id="path98" />
      <path
         d="m 513.387,251.898 c 0.207,0.942 0.527,2.731 0.527,4.524 0,5.769 -2.109,10.699 -8.191,10.699 -6.196,0 -9.875,-4.93 -10.61,-15.223 z m -18.379,-5.558 c 0.105,-13.02 6.308,-19.102 15.332,-19.102 6.719,0 10.5,2.614 13.125,4.821 1.047,-0.84 1.57,-2.629 1.57,-3.571 0,-2.617 -6.922,-8.609 -18.582,-8.609 -12.91,0 -22.566,7.359 -22.566,25.621 0,18.262 11.023,27.609 22.984,27.609 11.867,0 17.856,-7.238 17.856,-17.75 0,-2.718 -0.532,-6.39 -1.262,-9.019 h -28.457"
         style="fill:#231f20;fill-opacity:1;fill-rule:nonzero;stroke:none"
         id="path100" />
      <path
         d="m 580.379,227.02 7.656,-1.051 c 0,0 0.11,-0.41 0.11,-0.84 0,-1.891 -1.368,-3.149 -3.887,-3.359 l -13.86,-1.25 v 6.921 h -0.203 c -1.679,-2.211 -6.3,-7.562 -15.539,-7.562 -11.23,0 -16.484,6.609 -16.484,19.012 v 26.757 l -7.449,1.161 c 0,0 -0.11,0.632 -0.11,1.05 0,1.782 1.367,3.051 3.887,3.25 l 14.277,1.371 v -33.082 c 0,-9.546 5.039,-11.75 9.661,-11.75 5.347,0 8.914,2.313 11.335,5.043 v 32.957 l -7.46,1.161 c 0,0 -0.098,0.632 -0.098,1.05 0,1.782 1.367,3.051 3.887,3.25 l 14.277,1.371 v -45.46"
         style="fill:#231f20;fill-opacity:1;fill-rule:nonzero;stroke:none"
         id="path102" />
      <path
         d="m 624.168,266.07 h -14.387 v -30.648 c 0,-4.731 1.469,-8.613 6.723,-8.613 4.09,0 7.449,1.781 8.289,2.519 0.527,-0.84 0.945,-2.418 0.945,-3.457 0,-1.062 -3.679,-5.992 -13.23,-5.992 -9.551,0 -13.328,5.57 -13.328,13.652 v 32.539 h -7.871 c 0,0 -0.11,0.641 -0.11,0.95 0,1.992 1.262,3.152 3.25,3.57 l 5.149,1.262 2.414,14.179 h 7.769 v -14.179 h 15.539 l -1.152,-5.782"
         style="fill:#231f20;fill-opacity:1;fill-rule:nonzero;stroke:none"
         id="path104" />
      <path
         d="m 654.93,265.34 c -1.153,0.84 -3.778,2.101 -6.934,2.101 -3.457,0 -7.031,-1.472 -7.031,-5.882 0,-4.618 4.933,-7.348 9.973,-10.289 6.296,-3.782 13.015,-7.872 13.015,-16.27 0,-8.602 -7.137,-15.121 -18.68,-15.121 -5.878,0 -11.132,1.793 -13.332,3.16 -0.429,2.609 -0.742,5.352 -0.742,8.07 0,4.2 1.153,5.879 4.309,5.879 0.523,0 1.367,-0.097 1.367,-0.097 l 2.195,-8.922 c 1.055,-0.731 4.102,-2.098 7.149,-2.098 5.136,0 8.398,1.988 8.398,6.41 0,4.508 -5.039,7.028 -9.765,9.969 -6.407,4.09 -12.813,8.18 -12.813,17.211 0,8.187 7.141,13.648 17.219,13.648 6.094,0 10.398,-2.097 12.285,-3.879 0.203,-1.48 0.418,-3.679 0.418,-5.781 0,-3.668 -0.731,-6.09 -4.512,-6.09 -0.527,0 -1.258,0.11 -1.258,0.11 l -1.261,7.871"
         style="fill:#231f20;fill-opacity:1;fill-rule:nonzero;stroke:none"
         id="path106" />
      <path
         d="m 696.504,266.809 c -7.031,0 -13.117,-5.039 -13.117,-18.789 0,-13.219 5.136,-20.891 15.011,-20.891 6.504,0 10.282,3.359 11.961,5.043 0.95,-0.953 1.68,-2.633 1.68,-3.582 0,-2.621 -5.769,-8.711 -17.324,-8.711 -13.645,0 -22.461,8.609 -22.461,25.93 0,17.742 11.863,27.3 26.035,27.3 11.543,0 14.492,-5.668 14.492,-8.718 0,-2.832 -1.367,-5.45 -5.359,-6.289 -1.574,3.668 -3.984,8.707 -10.918,8.707"
         style="fill:#231f20;fill-opacity:1;fill-rule:nonzero;stroke:none"
         id="path108" />
      <path
         d="m 735.457,265.551 h 0.203 c 2.102,2.519 7.141,7.558 16.176,7.558 10.496,0 16.473,-6.199 16.473,-18.48 v -27.82 l 6.093,-1.36 c 1.055,-0.219 1.465,-0.527 1.465,-1.367 0,-1.043 -0.84,-2.621 -1.047,-2.941 h -23.828 c 0,0 -0.105,0.629 -0.105,0.949 0,1.89 1.261,2.832 3.254,3.469 l 3.464,1.25 v 26.562 c 0,8.93 -4.824,11.66 -10.183,11.66 -6.504,0 -9.973,-2.84 -11.965,-4.832 v -33.39 l 5.879,-1.36 c 1.047,-0.219 1.465,-0.527 1.465,-1.367 0,-1.043 -0.731,-2.621 -1.043,-2.941 h -23.84 c 0,0 -0.098,0.629 -0.098,0.949 0,1.89 1.258,2.832 3.25,3.469 l 3.672,1.25 v 63.73 l -7.449,1.043 c 0,0 -0.105,0.727 -0.105,1.156 0,1.782 1.367,3.043 3.882,3.262 l 14.387,1.352 v -31.801"
         style="fill:#231f20;fill-opacity:1;fill-rule:nonzero;stroke:none"
         id="path110" />
      <path
         d="m 810.738,251.898 c 0.207,0.942 0.52,2.731 0.52,4.524 0,5.769 -2.09,10.699 -8.184,10.699 -6.191,0 -9.863,-4.93 -10.605,-15.223 z m -18.367,-5.558 c 0.098,-13.02 6.289,-19.102 15.324,-19.102 6.715,0 10.496,2.614 13.125,4.821 1.043,-0.84 1.571,-2.629 1.571,-3.571 0,-2.617 -6.934,-8.609 -18.582,-8.609 -12.911,0 -22.571,7.359 -22.571,25.621 0,18.262 11.028,27.609 22.989,27.609 11.867,0 17.851,-7.238 17.851,-17.75 0,-2.718 -0.527,-6.39 -1.258,-9.019 h -28.449"
         style="fill:#231f20;fill-opacity:1;fill-rule:nonzero;stroke:none"
         id="path112" />
      <path
         d="m 880.352,226.809 6.199,-1.36 c 1.047,-0.219 1.465,-0.527 1.465,-1.367 0,-1.043 -0.84,-2.621 -1.055,-2.941 h -23.828 c 0,0 -0.098,0.629 -0.098,0.949 0,1.89 1.25,2.832 3.25,3.469 l 3.469,1.25 v 26.562 c 0,8.93 -5.039,11.66 -10.184,11.66 -5.988,0 -9.875,-2.84 -12.082,-4.633 v -33.589 l 5.989,-1.36 c 1.05,-0.219 1.472,-0.527 1.472,-1.367 0,-1.043 -0.84,-2.621 -1.054,-2.941 h -23.829 c 0,0 -0.105,0.629 -0.105,0.949 0,1.89 1.258,2.719 3.25,3.469 l 3.684,1.25 v 38.839 l -7.454,1.161 c 0,0 -0.105,0.632 -0.105,1.05 0,1.782 1.355,3.051 3.875,3.25 l 14.277,1.371 -0.625,-7.351 h 0.313 c 2.832,3.043 7.558,7.98 17.219,7.98 10.293,0 15.957,-6.621 15.957,-18.48 v -27.82"
         style="fill:#231f20;fill-opacity:1;fill-rule:nonzero;stroke:none"
         id="path114" />
      <path
         d="m 941.668,254.629 h -6.934 v -27.078 h 6.309 c 12.277,0 17.734,5.769 17.734,13.961 0,7.769 -5.769,13.117 -17.109,13.117 z m -1.262,32.551 h -5.672 v -26.461 h 5.567 c 11.972,0 17.012,5.883 17.012,13.332 0,8.621 -5.352,13.129 -16.907,13.129 z m 13.442,-28.559 v -0.211 c 10.183,-1.68 16.902,-7.449 16.902,-17 0,-11.762 -9.656,-20.269 -28.555,-20.269 h -26.668 c 0,0 -0.109,0.629 -0.109,1.16 0,1.679 0.84,3.148 3.574,3.769 l 4.414,1.059 v 60.672 l -6.406,1.48 c -1.055,0.199 -1.473,0.52 -1.473,1.149 0,0.949 0.731,2.211 1.161,3.152 h 24.667 c 18.68,0 27.61,-6.621 27.61,-18.273 0,-9.969 -6.086,-14.688 -15.117,-16.688"
         style="fill:#231f20;fill-opacity:1;fill-rule:nonzero;stroke:none"
         id="path116" />
      <path
         d="m 1027.14,227.02 7.66,-1.051 c 0,0 0.11,-0.41 0.11,-0.84 0,-1.891 -1.37,-3.149 -3.89,-3.359 l -13.85,-1.25 v 6.921 h -0.21 c -1.68,-2.211 -6.3,-7.562 -15.54,-7.562 -11.236,0 -16.479,6.609 -16.479,19.012 v 26.757 l -7.453,1.161 c 0,0 -0.105,0.632 -0.105,1.05 0,1.782 1.367,3.051 3.887,3.25 l 14.277,1.371 v -33.082 c 0,-9.546 5.033,-11.75 9.653,-11.75 5.35,0 8.93,2.313 11.34,5.043 v 32.957 l -7.45,1.161 c 0,0 -0.11,0.632 -0.11,1.05 0,1.782 1.36,3.051 3.88,3.25 l 14.28,1.371 v -45.46"
         style="fill:#231f20;fill-opacity:1;fill-rule:nonzero;stroke:none"
         id="path118" />
      <path
         d="m 1090.34,226.809 6.19,-1.36 c 1.06,-0.219 1.48,-0.527 1.48,-1.367 0,-1.043 -0.84,-2.621 -1.05,-2.941 h -23.84 c 0,0 -0.1,0.629 -0.1,0.949 0,1.89 1.26,2.832 3.26,3.469 l 3.45,1.25 v 26.562 c 0,8.93 -5.04,11.66 -10.17,11.66 -5.99,0 -9.87,-2.84 -12.07,-4.633 v -33.589 l 5.97,-1.36 c 1.06,-0.219 1.48,-0.527 1.48,-1.367 0,-1.043 -0.84,-2.621 -1.06,-2.941 h -23.82 c 0,0 -0.11,0.629 -0.11,0.949 0,1.89 1.26,2.719 3.26,3.469 l 3.67,1.25 v 38.839 l -7.46,1.161 c 0,0 -0.1,0.632 -0.1,1.05 0,1.782 1.37,3.051 3.89,3.25 l 14.28,1.371 -0.64,-7.351 h 0.32 c 2.84,3.043 7.55,7.98 17.21,7.98 10.3,0 15.96,-6.621 15.96,-18.48 v -27.82"
         style="fill:#231f20;fill-opacity:1;fill-rule:nonzero;stroke:none"
         id="path120" />
      <path
         d="m 1137.92,263.66 c -1.58,1.469 -4.42,3.149 -8.82,3.149 -8.51,0 -14.81,-6.09 -14.81,-19.938 0,-13.551 5.88,-19.012 12.91,-19.012 6.1,0 9.35,2.832 10.72,4.422 z m 10.6,-36.64 7.66,-1.051 c 0,0 0.11,-0.41 0.11,-0.84 0,-1.891 -1.37,-3.149 -3.89,-3.359 l -13.86,-1.25 v 6.812 h -0.31 c -2.3,-3.25 -6.72,-7.453 -14.9,-7.453 -10.3,0 -19.95,6.609 -19.95,24.891 0,19.519 13.64,28.339 27.08,28.339 3.04,0 5.67,-0.519 7.46,-0.949 v 18.379 l -7.46,1.043 c 0,0 -0.1,0.727 -0.1,1.156 0,1.782 1.37,3.043 3.89,3.262 l 14.27,1.352 V 227.02"
         style="fill:#231f20;fill-opacity:1;fill-rule:nonzero;stroke:none"
         id="path122" />
      <path
         d="m 1191.78,251.898 c 0.2,0.942 0.51,2.731 0.51,4.524 0,5.769 -2.09,10.699 -8.18,10.699 -6.19,0 -9.86,-4.93 -10.61,-15.223 z m -18.37,-5.558 c 0.09,-13.02 6.28,-19.102 15.32,-19.102 6.72,0 10.5,2.614 13.12,4.821 1.05,-0.84 1.58,-2.629 1.58,-3.571 0,-2.617 -6.94,-8.609 -18.59,-8.609 -12.91,0 -22.57,7.359 -22.57,25.621 0,18.262 11.03,27.609 22.99,27.609 11.87,0 17.85,-7.238 17.85,-17.75 0,-2.718 -0.52,-6.39 -1.26,-9.019 h -28.44"
         style="fill:#231f20;fill-opacity:1;fill-rule:nonzero;stroke:none"
         id="path124" />
      <path
         d="m 1235.98,265.34 c -1.15,0.84 -3.78,2.101 -6.93,2.101 -3.46,0 -7.03,-1.472 -7.03,-5.882 0,-4.618 4.93,-7.348 9.97,-10.289 6.3,-3.782 13.02,-7.872 13.02,-16.27 0,-8.602 -7.14,-15.121 -18.68,-15.121 -5.88,0 -11.14,1.793 -13.33,3.16 -0.43,2.609 -0.75,5.352 -0.75,8.07 0,4.2 1.16,5.879 4.31,5.879 0.53,0 1.37,-0.097 1.37,-0.097 l 2.19,-8.922 c 1.06,-0.731 4.11,-2.098 7.15,-2.098 5.14,0 8.4,1.988 8.4,6.41 0,4.508 -5.04,7.028 -9.76,9.969 -6.41,4.09 -12.82,8.18 -12.82,17.211 0,8.187 7.14,13.648 17.22,13.648 6.09,0 10.4,-2.097 12.29,-3.879 0.2,-1.48 0.42,-3.679 0.42,-5.781 0,-3.668 -0.74,-6.09 -4.52,-6.09 -0.52,0 -1.26,0.11 -1.26,0.11 l -1.26,7.871"
         style="fill:#231f20;fill-opacity:1;fill-rule:nonzero;stroke:none"
         id="path126" />
      <path
         d="m 1283.33,266.07 h -14.38 v -30.648 c 0,-4.731 1.47,-8.613 6.72,-8.613 4.09,0 7.45,1.781 8.29,2.519 0.53,-0.84 0.95,-2.418 0.95,-3.457 0,-1.062 -3.67,-5.992 -13.23,-5.992 -9.55,0 -13.33,5.57 -13.33,13.652 v 32.539 h -7.87 c 0,0 -0.11,0.641 -0.11,0.95 0,1.992 1.26,3.152 3.25,3.57 l 5.15,1.262 2.41,14.179 h 7.77 v -14.179 h 15.54 l -1.16,-5.782"
         style="fill:#231f20;fill-opacity:1;fill-rule:nonzero;stroke:none"
         id="path128" />
      <path
         d="m 1313.78,243.82 c -8.5,-0.422 -13.33,-3.468 -13.33,-9.019 0,-4.422 2.52,-7.36 6.82,-7.36 4.31,0 7.56,2.829 8.93,4.508 v 11.981 z m 13.02,-11.449 c 0,-4.199 1.58,-5.461 3.36,-5.461 2.42,0 3.68,1.262 3.99,1.789 0.53,-0.73 1.26,-2.211 1.26,-3.14 0,-1.368 -2.73,-5.469 -9.55,-5.469 -4.84,0 -7.88,2.109 -8.82,7.351 h -0.22 c -1.15,-1.992 -5.04,-7.562 -13.75,-7.562 -7.97,0 -13.65,5.461 -13.65,13.75 0,11.242 12.29,15.441 24.04,15.441 h 2.74 v 4.719 c 0,9.563 -2.52,13.332 -9.03,13.332 -2.42,0 -4.52,-0.73 -5.36,-1.051 -0.94,-1.988 -1.78,-5.672 -2.31,-9.23 0,0 -1.57,-0.11 -2.41,-0.11 -3.57,0 -5.56,1.68 -5.56,4.942 0,6.5 8.6,11.437 18.37,11.437 11.54,0 16.9,-6.3 16.9,-18.16 v -22.578"
         style="fill:#231f20;fill-opacity:1;fill-rule:nonzero;stroke:none"
         id="path130" />
      <path
         d="m 1351.59,256.199 c 0,-8.289 4.2,-11.539 9.45,-11.539 5.67,0 9.77,3.25 9.77,11.539 0,7.461 -4.1,11.242 -9.56,11.242 -5.46,0 -9.66,-3.152 -9.66,-11.242 z m 4.62,-34.64 c -1.47,0 -2.73,0.113 -3.88,0.211 -2.73,-1.571 -4.52,-4.2 -4.52,-7.77 0,-5.449 3.36,-8.922 11.03,-8.922 10.18,0 16.48,4.731 16.48,10.293 0,4.309 -2.42,6.188 -7.77,6.188 z m 30.23,44.312 h -8.5 c 2,-2.633 3.26,-5.781 3.26,-9.562 0,-11.118 -9.24,-17.418 -20.68,-17.418 -1.79,0 -3.36,0.199 -4.94,0.507 -1.47,-0.839 -2.94,-2.296 -2.94,-4.707 0,-2.519 1.68,-3.679 5.25,-3.679 h 12.18 c 9.65,0 15.11,-4.41 15.11,-11.973 0,-10.488 -10.28,-20.148 -28.02,-20.148 -12.91,0 -19.21,4.507 -19.21,12.168 0,7.351 5.77,10.82 9.55,11.98 v 0.199 c -2.73,1.481 -4.31,4 -4.31,7.364 0,6.078 5.57,8.91 7.56,9.968 v 0.2 c -5.88,2.628 -9.66,7.98 -9.66,15.539 0,11.023 9.24,16.8 19.95,16.8 2.83,0 5.57,-0.418 8.19,-1.257 h 18.38 l -1.17,-5.981"
         style="fill:#231f20;fill-opacity:1;fill-rule:nonzero;stroke:none"
         id="path132" />
      <path
         d="m 1422.25,251.898 c 0.21,0.942 0.53,2.731 0.53,4.524 0,5.769 -2.11,10.699 -8.19,10.699 -6.19,0 -9.88,-4.93 -10.61,-15.223 z m -18.38,-5.558 c 0.11,-13.02 6.31,-19.102 15.34,-19.102 6.72,0 10.49,2.614 13.12,4.821 1.05,-0.84 1.57,-2.629 1.57,-3.571 0,-2.617 -6.92,-8.609 -18.58,-8.609 -12.91,0 -22.57,7.359 -22.57,25.621 0,18.262 11.03,27.609 22.99,27.609 11.87,0 17.85,-7.238 17.85,-17.75 0,-2.718 -0.53,-6.39 -1.26,-9.019 h -28.46"
         style="fill:#231f20;fill-opacity:1;fill-rule:nonzero;stroke:none"
         id="path134" />
      <path
         d="m 1466.45,265.34 c -1.15,0.84 -3.78,2.101 -6.93,2.101 -3.46,0 -7.03,-1.472 -7.03,-5.882 0,-4.618 4.93,-7.348 9.97,-10.289 6.3,-3.782 13.02,-7.872 13.02,-16.27 0,-8.602 -7.14,-15.121 -18.69,-15.121 -5.87,0 -11.13,1.793 -13.33,3.16 -0.43,2.609 -0.74,5.352 -0.74,8.07 0,4.2 1.15,5.879 4.31,5.879 0.53,0 1.37,-0.097 1.37,-0.097 l 2.19,-8.922 c 1.06,-0.731 4.1,-2.098 7.15,-2.098 5.14,0 8.4,1.988 8.4,6.41 0,4.508 -5.04,7.028 -9.77,9.969 -6.4,4.09 -12.81,8.18 -12.81,17.211 0,8.187 7.14,13.648 17.22,13.648 6.09,0 10.4,-2.097 12.28,-3.879 0.21,-1.48 0.42,-3.679 0.42,-5.781 0,-3.668 -0.73,-6.09 -4.51,-6.09 -0.53,0 -1.26,0.11 -1.26,0.11 l -1.26,7.871"
         style="fill:#231f20;fill-opacity:1;fill-rule:nonzero;stroke:none"
         id="path136" />
      <path
         d="m 545,835.297 h 15 V 635.301 h -35 v 199.996 h 20"
         style="fill:#f2cf04;fill-opacity:1;fill-rule:nonzero;stroke:none"
         id="path138" />
      <path
         d="m 545,1036.3 h 15 V 835.297 H 525 V 1036.3 h 20"
         style="fill:#ed1c24;fill-opacity:1;fill-rule:nonzero;stroke:none"
         id="path140" />
      <path
         d="m 371.73,1161.91 c 0.274,2.23 0.426,4.55 0.426,6.91 0,1.29 0.012,2.79 -0.144,4.48 19.926,0.29 37.406,14.64 37.406,31.16 0,8.4 -5.477,14.74 -8.574,18.53 0.699,0.14 1.398,0.31 2.101,0.48 2.918,-2.54 11.203,-11.56 11.203,-22.95 0,-19.81 -19.8,-38.2 -42.418,-38.61 z m -20.082,68.99 c -0.371,2.21 -1.21,4.21 -2.488,5.92 0.063,2.03 0.895,3.96 4.145,2.37 -1.758,-1.8 -0.399,-4.99 -0.399,-4.99 0,0 3.598,1.68 2.856,4.05 5.336,-1.28 1.5,-8.45 -4.114,-7.35 z m -4.632,-10.17 c -0.711,2.96 -2.227,6 -4.161,8.29 -1.757,2.08 -4.667,4.54 -8.582,4.54 -1.793,0 -4.793,-0.83 -6.699,-1.64 -0.719,1.3 -2.109,4.43 -2.109,5.84 0,1.45 2.457,2.92 7.14,2.92 10.321,0 16.489,-4.66 16.489,-12.48 0,-2.75 -1.09,-5.25 -2.078,-7.47 z m 26.504,-133 c 1.199,0 1.785,-0.2 2.476,-0.45 2.973,-8.09 14.418,-23.33 14.899,-23.98 l 0.105,-0.14 0.172,0.04 c 2.805,0.45 9.976,1.53 15.98,1.53 h 0.133 c 0.653,0 1.391,0 1.863,-0.46 0.387,-0.39 0.582,-1.07 0.582,-2.04 0,-1.5 -0.632,-4.04 -1.39,-5.14 -2.106,2.3 -5.512,3.32 -10.969,3.32 -1.644,0 -3.582,-0.48 -4.633,-0.76 l -0.429,-0.1 -0.493,-0.12 3.157,-3.16 c 4.855,-4.85 9.058,-9.04 9.058,-11.83 0,-1.68 -1.636,-3.87 -3.148,-4.85 -0.32,5.12 -5.488,11.96 -10.512,15.79 l -0.43,0.32 -0.082,-1.8 c -0.074,-1.22 -0.179,-3.06 -0.179,-5.01 0,-9.74 -0.989,-11.21 -4.364,-11.21 -0.515,0 -1.308,0.14 -1.8,0.33 1.898,2.35 2.652,5.45 2.652,10.89 l -0.031,2.51 -0.024,2.02 c 0,2.23 0.231,3.88 0.41,5.21 l 0.098,0.75 -0.531,0.07 c -1.578,0.22 -4.512,0.62 -6.754,0.62 -4.805,0 -8.066,-0.44 -10.43,-2.66 -1.558,1.26 -3.16,3.42 -3.16,4.8 0,2.03 1.266,2.19 2.922,2.19 0.84,0 1.621,-0.12 2.703,-0.26 2.067,-0.3 5.184,-0.76 11.59,-0.76 h 0.394 l -0.125,0.39 c -1.625,4.65 -6.082,11.41 -13.234,20.1 0.645,2.32 1.274,3.85 3.524,3.85 z m -61.743,-23.95 -0.129,-0.39 h 0.399 c 6.406,0 9.523,0.46 11.59,0.76 1.086,0.14 1.859,0.26 2.703,0.26 1.652,0 2.922,-0.16 2.922,-2.19 0,-1.38 -1.606,-3.54 -3.157,-4.8 -2.367,2.22 -5.632,2.66 -10.429,2.66 -2.246,0 -5.184,-0.4 -6.762,-0.62 l -0.246,-0.03 -0.277,-0.04 0.089,-0.75 c 0.188,-1.33 0.415,-2.98 0.415,-5.21 l -0.028,-2.02 -0.023,-2.51 c 0,-5.44 0.746,-8.54 2.648,-10.89 -0.492,-0.19 -1.289,-0.33 -1.804,-0.33 -3.375,0 -4.356,1.47 -4.356,11.21 0,1.95 -0.105,3.79 -0.176,5.01 l -0.093,1.81 -0.43,-0.33 c -5.02,-3.83 -10.192,-10.67 -10.5,-15.79 -1.516,0.98 -3.153,3.17 -3.153,4.85 0,2.79 4.196,6.98 9.055,11.83 l 2.797,2.8 0.352,0.36 -0.918,0.22 c -1.043,0.28 -2.985,0.76 -4.633,0.76 -5.453,0 -8.86,-1.02 -10.969,-3.32 -0.75,1.1 -1.387,3.64 -1.387,5.14 0,0.97 0.192,1.65 0.578,2.04 0.477,0.46 1.215,0.46 1.864,0.46 h 0.136 c 6,0 13.18,-1.08 15.985,-1.53 l 0.164,-0.04 0.105,0.14 c 0.485,0.65 11.93,15.89 14.907,23.98 0.679,0.25 1.277,0.45 2.468,0.45 2.254,0 2.879,-1.53 3.532,-3.85 -7.161,-8.69 -11.614,-15.45 -13.239,-20.1 z m -30.918,136.74 c 0,11.39 8.286,20.41 11.207,22.95 0.704,-0.17 1.403,-0.34 2.098,-0.48 -3.101,-3.79 -8.574,-10.13 -8.574,-18.53 0,-16.68 17.824,-31.16 38,-31.16 -0.129,-1.43 -0.199,-2.94 -0.199,-4.48 0,-2.46 0.132,-4.75 0.379,-6.91 -22.817,0.14 -42.911,18.66 -42.911,38.61 z m 153.063,-35.13 c 10.234,-16.2 18.25,-15.92 30.351,-15.92 -10.015,7.67 -16.636,17.5 -19.793,22.51 l -18.699,29.93 c -1.828,9.24 -6.605,17.88 -13.761,24.3 2.406,0.92 4.406,1.88 5.613,2.79 -12.211,0 -24.313,6.2 -30.973,6.2 -4.281,0 -7.035,-2.56 -7.035,-5.94 0.277,-3.77 4.152,-7.61 11.32,-7.61 1.629,0 3.703,0.22 5.985,0.6 3.883,-5.41 7.011,-10.3 7.011,-17.28 0,-13.1 -15.664,-23.31 -31.476,-23.31 -0.895,0 -1.742,0.03 -2.637,0.1 -1.433,3.24 -6.195,8.7 -6.195,14.9 0,10.41 6.789,18.91 6.789,29.22 0,6.41 -3.125,10.37 -4.328,12.02 1.941,1.81 4.066,4.02 4.558,5.54 -1.125,-0.49 -2.461,-0.55 -4.418,-0.55 -7.578,0 -13.754,1.97 -19.781,1.97 -3.43,0 -4.359,-1.06 -4.359,-2.07 0,-0.37 0.058,-0.75 0.156,-0.93 -1.281,0.5 -2.484,0.82 -3.914,1.09 -1.773,0.34 -3.691,0.51 -5.731,0.51 -7.316,0 -9.917,-3.07 -9.917,-5.7 0,-2.22 1.75,-6.29 3.738,-9.38 2.855,1.43 6.277,2.41 7.847,2.41 3.879,0 7.336,-3.7 9.168,-8.09 -2.613,-0.31 -3.113,-0.43 -5.753,-0.43 -7.125,0 -11.973,2.56 -12.977,2.56 -0.098,0 -0.285,-0.05 -0.285,-0.2 0,-1.01 2.019,-3.65 6.004,-5.1 5.246,-1.92 13.109,-2.73 14.418,-2.94 0,-0.23 -1.332,-2.71 -2.817,-3.19 -0.316,-0.1 -0.562,-0.11 -0.926,-0.04 -5.484,1.09 -7.011,1.55 -13.964,4.19 -0.215,0.08 -0.34,-0.05 -0.34,-0.28 0,-2.74 7.121,-8.81 13.496,-11.14 -5.324,-6.8 -11.981,-13.76 -15.117,-24.37 -0.887,-0.07 -1.746,-0.1 -2.641,-0.1 -15.809,0 -31.476,10.21 -31.476,23.31 0,6.98 3.136,11.87 7.019,17.28 2.277,-0.38 4.352,-0.6 5.977,-0.6 7.168,0 11.046,3.84 11.332,7.61 0,3.38 -2.754,5.94 -7.047,5.94 -6.66,0 -18.75,-6.2 -30.973,-6.2 1.207,-0.91 3.211,-1.87 5.613,-2.79 -7.156,-6.42 -11.933,-15.06 -13.761,-24.3 l -18.696,-29.93 c -3.148,-5.01 -9.789,-14.84 -19.8,-22.51 12.101,0 20.125,-0.28 30.363,15.92 l 9.586,15.34 c 0.711,-2 1.586,-3.93 2.609,-5.83 l -19.066,-30.51 c -3.172,-5.06 -9.746,-14.8 -19.801,-22.52 12.102,0 20.121,-0.28 30.355,15.9 l 16.418,26.28 c 1.227,-1.31 2.52,-2.59 3.883,-3.81 l -23.164,-37.08 c -3.183,-5.07 -9.722,-14.78 -19.797,-22.5 12.102,0 20.121,-0.3 30.36,15.9 l 22.578,36.15 c 1.488,-0.94 3.012,-1.85 4.582,-2.72 l -27.563,-44.1 c -3.179,-5.07 -9.722,-14.76 -19.789,-22.5 12.098,0 20.121,-0.28 30.356,15.9 l 28.379,45.43 c 1.679,-0.65 3.382,-1.26 5.117,-1.82 l -32.07,-51.33 c -3.133,-5 -9.825,-14.86 -19.786,-22.5 12.094,0 20.118,-0.27 30.352,15.91 l 34.18,54.7 c 0.347,-0.05 0.695,-0.11 1.031,-0.18 0.93,-2.96 1.582,-5.72 1.582,-8.47 0,-17.19 -11.281,-32.37 -24.82,-44.09 0.863,-0.38 2.375,-0.51 3.769,-0.51 2.793,0 4.602,0.14 5.863,0.37 -3.136,-7.13 -9.871,-16.34 -13.273,-21.1 -4.438,0.8 -10.883,1.43 -15.106,1.43 -4.417,0 -4.917,-2.59 -4.917,-4.9 0,-4.01 1.875,-7.21 4.066,-8.98 0.812,2.05 2.465,4.79 10.629,4.79 0.156,0 0.437,-0.02 0.82,-0.05 -2.39,-2.65 -9.859,-8.69 -9.859,-13.55 0,-3.23 3.535,-8.05 8.187,-8.05 -0.277,1.04 -0.238,1.99 -0.238,2.71 0,3.94 3.484,8.55 6.437,11.76 -0.089,-0.95 -0.046,-0.86 -0.046,-1.97 0,-9.32 0.843,-13.59 6.754,-13.59 2.902,0 4.902,1.59 5.589,2.07 -3.839,3.53 -4.039,6.31 -4.039,11.53 0.012,1.36 0.016,2.69 0.035,4.52 0.016,1.19 -0.003,2.78 -0.199,3.92 2.117,0.29 2.973,0.29 4.602,0.29 0,0 8.394,0.67 10.418,-3.7 2.281,2.09 5.59,5.04 5.59,8.29 0,2.15 -1.02,4.58 -5.344,4.58 -1.637,0 -6.789,-1 -11.102,-1 1.157,2.58 6.317,10.11 10.782,15.58 0.675,-2.12 1.73,-4.41 4.074,-6.29 0.32,3.52 2.386,14.65 7.886,21.15 0.637,-4.39 1.5,-8.9 1.5,-18.42 0,-23.13 -5.558,-40.22 -17.371,-43.48 1.539,-2.68 4.786,-5.08 8.161,-5.08 4.316,0 6.671,4.88 9.07,9.49 1.25,-3.39 4.703,-11.73 8.16,-11.73 3.457,0 6.914,8.34 8.164,11.73 2.399,-4.61 4.75,-9.49 9.07,-9.49 3.375,0 6.629,2.4 8.164,5.08 -11.808,3.26 -17.375,20.35 -17.375,43.48 0,9.52 0.86,14.03 1.497,18.42 5.503,-6.5 7.574,-17.63 7.89,-21.15 2.348,1.88 3.406,4.17 4.078,6.29 4.465,-5.47 9.621,-13 10.782,-15.58 -4.317,0 -9.465,1 -11.102,1 -4.32,0 -5.344,-2.43 -5.344,-4.58 0,-3.25 3.313,-6.2 5.594,-8.29 2.016,4.37 10.418,3.7 10.418,3.7 1.625,0 2.48,0 4.602,-0.29 -0.2,-1.14 -0.211,-2.73 -0.204,-3.92 0.02,-1.83 0.028,-3.16 0.032,-4.52 0,-5.22 -0.196,-8 -4.036,-11.53 0.692,-0.48 2.692,-2.07 5.586,-2.07 5.914,0 6.758,4.27 6.758,13.59 0,1.11 0.035,1.02 -0.043,1.97 2.946,-3.21 6.438,-7.82 6.438,-11.76 0,-0.72 0.039,-1.67 -0.246,-2.71 4.66,0 8.195,4.82 8.195,8.05 0,4.86 -7.473,10.9 -9.863,13.55 0.386,0.03 0.664,0.05 0.816,0.05 8.172,0 9.817,-2.74 10.637,-4.79 2.183,1.77 4.058,4.97 4.058,8.98 0,2.31 -0.496,4.9 -4.914,4.9 -4.222,0 -10.668,-0.63 -15.105,-1.43 -3.402,4.76 -10.133,13.97 -13.277,21.1 1.265,-0.23 3.078,-0.37 5.863,-0.37 1.402,0 2.906,0.13 3.773,0.51 -13.539,11.72 -24.82,26.9 -24.82,44.09 0,2.75 0.652,5.51 1.582,8.47 0.336,0.07 0.687,0.13 1.031,0.18 l 34.176,-54.7 c 10.234,-16.18 18.262,-15.91 30.352,-15.91 -9.961,7.64 -16.649,17.5 -19.774,22.5 l -32.082,51.33 c 1.738,0.56 3.442,1.17 5.121,1.82 l 28.379,-45.43 c 10.234,-16.18 18.254,-15.9 30.359,-15.9 -10.074,7.74 -16.613,17.43 -19.792,22.5 l -27.563,44.1 c 1.566,0.87 3.098,1.78 4.574,2.72 l 22.59,-36.15 c 10.238,-16.2 18.254,-15.9 30.348,-15.9 -10.067,7.72 -16.602,17.43 -19.789,22.5 l -23.16,37.08 c 1.363,1.22 2.66,2.5 3.875,3.81 l 16.421,-26.28 c 10.235,-16.18 18.25,-15.9 30.356,-15.9 -10.063,7.72 -16.621,17.46 -19.797,22.52 l -19.07,30.51 c 1.027,1.9 1.898,3.83 2.613,5.83 l 9.586,-15.34"
         style="fill:#231f20;fill-opacity:1;fill-rule:nonzero;stroke:none"
         id="path142" />
      <path
         d="M 560,1235.29 V 1035.3 h -35 v 199.99 h 35"
         style="fill:#231f20;fill-opacity:1;fill-rule:nonzero;stroke:none"
         id="path144" />
      <path
         d="m 1333.12,966.316 -23.09,-42.484 v -0.238 h 24.63 l -0.83,-8.211 h -36.3 v 6.187 l 23.8,42.84 v 0.238 h -22.49 v 7.856 h 34.28 z m -42.84,-1.668 h -12.5 v -31.652 c 0,-4.047 0.52,-6.805 1.55,-8.269 1.03,-1.469 2.77,-2.204 5.23,-2.204 1.43,0 2.66,0.2 3.69,0.594 1.03,0.399 1.79,0.754 2.26,1.074 l 1.31,-7.738 c -0.39,-0.316 -1.35,-0.812 -2.85,-1.484 -1.51,-0.676 -3.53,-1.012 -6.07,-1.012 -4.92,0 -8.61,1.367 -11.07,4.106 -2.46,2.734 -3.69,7.277 -3.69,13.625 v 32.96 h -6.9 v 6.426 l 6.9,1.43 1.07,15.945 h 8.57 v -15.945 h 13.69 z m -39.16,-49.265 h -8.8 v 6.426 h -0.24 c -0.24,-0.473 -0.75,-1.168 -1.55,-2.082 -0.79,-0.911 -1.8,-1.786 -3.03,-2.618 -1.23,-0.832 -2.72,-1.566 -4.46,-2.203 -1.75,-0.633 -3.69,-0.949 -5.83,-0.949 -2.54,0 -4.82,0.375 -6.85,1.129 -2.02,0.754 -3.75,1.965 -5.17,3.629 -1.43,1.668 -2.52,3.828 -3.28,6.488 -0.75,2.656 -1.13,5.93 -1.13,9.817 v 37.484 h 9.64 v -36.77 c 0,-4.761 0.78,-8.152 2.32,-10.175 1.55,-2.024 3.95,-3.036 7.2,-3.036 2.78,0 5.12,0.696 7.02,2.082 1.91,1.391 3.41,2.758 4.53,4.106 v 43.793 h 9.63 z m -64.02,0 v 36.773 c 0,4.836 -0.81,8.309 -2.44,10.41 -1.62,2.106 -4.1,3.157 -7.43,3.157 -2.86,0 -5.24,-0.715 -7.14,-2.145 -1.91,-1.426 -3.42,-2.816 -4.53,-4.164 v -44.031 h -9.64 v 84.133 l 9.64,1.074 v -33.918 h 0.24 c 0.32,0.476 0.81,1.113 1.49,1.906 0.67,0.793 1.61,1.586 2.8,2.379 1.19,0.793 2.63,1.488 4.34,2.082 1.7,0.598 3.71,0.895 6.01,0.895 5,0 8.96,-1.629 11.9,-4.879 2.93,-3.254 4.4,-8.649 4.4,-16.188 v -37.484 z m -45.34,46.055 c -0.23,0.238 -0.61,0.593 -1.13,1.07 -0.51,0.476 -1.17,0.953 -1.96,1.43 -0.79,0.472 -1.75,0.89 -2.86,1.25 -1.11,0.355 -2.38,0.535 -3.8,0.535 -2.07,0 -3.99,-0.379 -5.78,-1.133 -1.78,-0.754 -3.33,-1.961 -4.64,-3.629 -1.31,-1.664 -2.34,-3.828 -3.09,-6.484 -0.75,-2.661 -1.13,-5.891 -1.13,-9.7 0,-4.207 0.34,-7.734 1.01,-10.589 0.67,-2.86 1.61,-5.137 2.8,-6.844 1.19,-1.707 2.63,-2.938 4.34,-3.688 1.71,-0.754 3.59,-1.133 5.65,-1.133 2.94,0 5.18,0.516 6.73,1.547 1.54,1.032 2.63,1.864 3.27,2.5 l 3.93,-6.664 c -0.4,-0.476 -0.98,-1.051 -1.73,-1.726 -0.75,-0.672 -1.73,-1.328 -2.92,-1.961 -1.19,-0.637 -2.63,-1.172 -4.34,-1.61 -1.7,-0.433 -3.67,-0.652 -5.89,-0.652 -3.17,0 -6.15,0.516 -8.92,1.547 -2.78,1.031 -5.2,2.734 -7.26,5.117 -2.07,2.379 -3.69,5.473 -4.88,9.281 -1.19,3.809 -1.79,8.528 -1.79,14.161 0,5.472 0.72,10.117 2.14,13.921 1.43,3.809 3.3,6.883 5.6,9.227 2.3,2.34 4.86,4.043 7.67,5.113 2.82,1.074 5.66,1.61 8.51,1.61 2.14,0 4.03,-0.2 5.65,-0.598 1.63,-0.395 3.02,-0.891 4.17,-1.484 1.15,-0.598 2.1,-1.231 2.86,-1.907 0.75,-0.675 1.36,-1.25 1.84,-1.726 z m -48.79,-0.477 c -0.63,0.715 -1.78,1.687 -3.45,2.918 -1.66,1.226 -3.85,1.844 -6.54,1.844 -2.54,0 -4.48,-0.598 -5.83,-1.785 -1.35,-1.192 -2.03,-2.622 -2.03,-4.286 0,-2.14 0.62,-3.906 1.85,-5.297 1.23,-1.386 3.11,-2.875 5.65,-4.46 l 3.57,-2.141 c 3.89,-2.305 6.94,-4.781 9.16,-7.438 2.22,-2.66 3.34,-6.089 3.34,-10.296 0,-4.52 -1.57,-8.329 -4.7,-11.422 -3.14,-3.094 -7.64,-4.641 -13.51,-4.641 -2.3,0 -4.33,0.238 -6.07,0.715 -1.75,0.473 -3.27,1.027 -4.58,1.664 -1.31,0.637 -2.4,1.328 -3.27,2.082 -0.88,0.754 -1.59,1.449 -2.15,2.082 l 4.64,7.617 c 0.48,-0.476 1.06,-1.031 1.73,-1.668 0.67,-0.633 1.49,-1.246 2.44,-1.844 0.95,-0.593 2.02,-1.089 3.21,-1.488 1.19,-0.394 2.58,-0.594 4.17,-0.594 2.85,0 5.04,0.637 6.54,1.907 1.51,1.265 2.26,2.812 2.26,4.64 0,1.348 -0.17,2.52 -0.53,3.508 -0.36,0.992 -0.89,1.887 -1.61,2.68 -0.71,0.793 -1.59,1.547 -2.62,2.262 -1.03,0.71 -2.22,1.503 -3.57,2.378 l -3.57,2.262 c -3.57,2.301 -6.36,4.719 -8.39,7.258 -2.02,2.539 -3.03,5.793 -3.03,9.758 0,2.14 0.42,4.105 1.25,5.89 0.83,1.786 2,3.332 3.51,4.641 1.51,1.309 3.27,2.34 5.3,3.094 2.02,0.754 4.18,1.133 6.48,1.133 2.22,0 4.13,-0.219 5.71,-0.657 1.59,-0.437 2.96,-0.992 4.11,-1.664 1.15,-0.675 2.1,-1.351 2.85,-2.023 0.76,-0.676 1.37,-1.25 1.85,-1.727 z m -58.19,-38.793 c 1.35,0 2.54,0.195 3.57,0.594 1.03,0.398 1.93,0.875 2.68,1.429 0.75,0.555 1.39,1.168 1.9,1.844 0.52,0.676 0.98,1.25 1.37,1.727 v 12.613 l -3.09,-0.121 c -4.6,-0.156 -8.09,-0.949 -10.47,-2.379 -2.38,-1.43 -3.57,-3.73 -3.57,-6.902 0,-2.934 0.67,-5.137 2.02,-6.606 1.35,-1.465 3.21,-2.199 5.59,-2.199 z m -17.25,7.734 c 0,3.332 0.63,6.11 1.9,8.328 1.27,2.223 2.98,4.028 5.12,5.418 2.14,1.387 4.66,2.379 7.56,2.973 2.89,0.598 5.96,0.895 9.22,0.895 h 2.97 v 5.472 c 0,4.84 -0.85,8.172 -2.56,9.996 -1.7,1.825 -4.1,2.739 -7.2,2.739 -2.85,0 -5.23,-0.618 -7.14,-1.844 -1.9,-1.231 -3.41,-2.324 -4.52,-3.274 l -4.04,6.426 c 0.63,0.633 1.44,1.348 2.44,2.141 0.99,0.793 2.2,1.547 3.63,2.262 1.42,0.714 3.05,1.308 4.87,1.785 1.83,0.476 3.89,0.715 6.19,0.715 5.87,0 10.32,-1.629 13.33,-4.879 3.02,-3.254 4.52,-8.492 4.52,-15.711 v -26.059 c 0,-2.461 0.08,-4.859 0.24,-7.199 0.16,-2.344 0.32,-3.91 0.48,-4.703 h -9.17 l -0.35,6.308 h -0.24 c -0.32,-0.714 -0.79,-1.527 -1.43,-2.437 -0.63,-0.914 -1.43,-1.746 -2.38,-2.5 -0.95,-0.754 -2.1,-1.41 -3.45,-1.965 -1.35,-0.555 -2.94,-0.832 -4.76,-0.832 -2.14,0 -4.15,0.395 -6.01,1.188 -1.86,0.793 -3.49,1.906 -4.88,3.332 -1.39,1.429 -2.46,3.117 -3.21,5.058 -0.76,1.945 -1.13,4.067 -1.13,6.367 z m -50.694,-14.519 v 36.773 c 0,4.68 -0.676,8.051 -2.023,10.114 -1.352,2.062 -3.532,3.093 -6.547,3.093 -1.586,0 -2.996,-0.195 -4.223,-0.593 -1.23,-0.399 -2.32,-0.891 -3.273,-1.489 -0.954,-0.593 -1.786,-1.25 -2.5,-1.965 -0.715,-0.711 -1.309,-1.347 -1.786,-1.902 v -44.031 h -9.636 v 57.121 h 8.804 v -6.426 h 0.239 c 0.394,0.637 0.992,1.406 1.785,2.32 0.793,0.915 1.785,1.786 2.972,2.618 1.192,0.836 2.579,1.527 4.168,2.082 1.586,0.554 3.372,0.836 5.356,0.836 6.504,0 11.105,-2.539 13.801,-7.618 0.554,0.793 1.308,1.645 2.261,2.559 0.954,0.91 2.063,1.746 3.332,2.5 1.27,0.754 2.7,1.367 4.286,1.844 1.586,0.476 3.332,0.715 5.234,0.715 11.584,0 17.374,-6.746 17.374,-20.231 v -38.32 h -9.64 v 36.773 c 0,4.68 -0.832,8.051 -2.496,10.114 -1.668,2.062 -4.125,3.093 -7.379,3.093 -2.699,0 -4.937,-0.652 -6.722,-1.961 -1.785,-1.312 -3.196,-2.558 -4.227,-3.75 0.16,-0.875 0.277,-1.804 0.359,-2.797 0.079,-0.992 0.118,-2.042 0.118,-3.152 v -38.32 z m -49.508,70.926 c -1.98,0 -3.566,0.632 -4.758,1.902 -1.191,1.269 -1.785,2.937 -1.785,5 0,1.98 0.594,3.609 1.785,4.879 1.192,1.269 2.778,1.902 4.758,1.902 1.906,0 3.453,-0.633 4.645,-1.902 1.187,-1.27 1.785,-2.899 1.785,-4.879 0,-2.063 -0.598,-3.731 -1.785,-5 -1.192,-1.27 -2.739,-1.902 -4.645,-1.902 z m 4.762,-70.926 h -9.641 v 57.121 h 9.641 z m -27.25,13.328 c 0,-2.379 0.336,-4.043 1.012,-4.996 0.671,-0.953 1.843,-1.43 3.507,-1.43 0.875,0 1.61,0.078 2.204,0.238 0.593,0.161 1.05,0.317 1.367,0.477 l 0.836,-7.141 c -0.477,-0.238 -1.352,-0.554 -2.621,-0.953 -1.266,-0.394 -2.973,-0.593 -5.118,-0.593 -3.25,0 -5.871,0.992 -7.851,2.976 -1.985,1.981 -2.977,5.512 -2.977,10.59 v 71.637 l 9.641,1.074 z m -44.863,28.68 27.843,-42.008 h -12.73 l -23.801,37.367 h -6.187 v -37.367 h -10.356 v 82.109 h 10.356 v -36.531 h 6.304 l 22.969,36.531 h 11.543 z m -87.586,-34.868 c 1.507,0 2.859,0.2 4.047,0.594 1.191,0.399 2.222,0.895 3.093,1.488 0.875,0.598 1.61,1.211 2.203,1.844 0.594,0.637 1.051,1.192 1.368,1.668 v 35.223 c -0.872,0.555 -1.883,1.031 -3.036,1.43 -1.148,0.398 -2.597,0.593 -4.343,0.593 -2.219,0 -4.301,-0.375 -6.246,-1.129 -1.946,-0.754 -3.629,-2.004 -5.059,-3.75 -1.426,-1.746 -2.559,-4.004 -3.391,-6.781 -0.832,-2.777 -1.25,-6.187 -1.25,-10.234 0,-3.969 0.336,-7.281 1.012,-9.938 0.676,-2.656 1.606,-4.801 2.797,-6.426 1.191,-1.625 2.539,-2.796 4.047,-3.511 1.508,-0.711 3.094,-1.071 4.758,-1.071 z m -22.61,20.586 c 0,5.793 0.754,10.633 2.262,14.52 1.508,3.887 3.449,7.019 5.832,9.402 2.379,2.379 5.074,4.067 8.09,5.059 3.015,0.988 6.031,1.484 9.047,1.484 1.824,0 3.41,-0.136 4.758,-0.418 1.347,-0.273 2.46,-0.613 3.332,-1.008 v 27.368 l 9.64,1.074 v -85.207 h -8.808 v 6.07 h -0.239 c -0.234,-0.476 -0.672,-1.129 -1.308,-1.965 -0.633,-0.832 -1.504,-1.664 -2.617,-2.496 -1.11,-0.836 -2.5,-1.547 -4.165,-2.144 -1.667,-0.594 -3.609,-0.891 -5.832,-0.891 -2.695,0 -5.253,0.535 -7.675,1.606 -2.418,1.07 -4.539,2.777 -6.368,5.117 -1.824,2.34 -3.269,5.355 -4.339,9.043 -1.075,3.691 -1.61,8.152 -1.61,13.386 z m -21.418,-27.726 v 36.773 c 0,4.836 -0.812,8.309 -2.441,10.41 -1.625,2.106 -4.106,3.157 -7.438,3.157 -2.855,0 -5.234,-0.715 -7.14,-2.145 -1.903,-1.426 -3.41,-2.816 -4.52,-4.164 v -44.031 h -9.64 v 57.121 h 8.804 v -6.426 h 0.239 c 0.238,0.477 0.753,1.168 1.546,2.082 0.793,0.914 1.829,1.785 3.094,2.617 1.27,0.836 2.778,1.567 4.524,2.203 1.746,0.633 3.73,0.954 5.949,0.954 2.539,0 4.84,-0.379 6.902,-1.133 2.063,-0.754 3.809,-1.961 5.238,-3.629 1.426,-1.664 2.54,-3.828 3.333,-6.484 0.792,-2.661 1.187,-5.93 1.187,-9.821 v -37.484 z m -45.933,0 h -8.809 v 6.426 h -0.238 c -0.238,-0.473 -0.754,-1.168 -1.547,-2.082 -0.793,-0.911 -1.805,-1.786 -3.031,-2.618 -1.231,-0.832 -2.719,-1.566 -4.465,-2.203 -1.746,-0.633 -3.688,-0.949 -5.832,-0.949 -2.539,0 -4.817,0.375 -6.84,1.129 -2.023,0.754 -3.75,1.965 -5.18,3.629 -1.425,1.668 -2.515,3.828 -3.269,6.488 -0.754,2.656 -1.133,5.93 -1.133,9.817 v 37.484 h 9.641 v -36.77 c 0,-4.761 0.773,-8.152 2.32,-10.175 1.547,-2.024 3.945,-3.036 7.199,-3.036 2.777,0 5.117,0.696 7.02,2.082 1.906,1.391 3.414,2.758 4.523,4.106 v 43.793 h 9.641 z m 539.19,169.267 h -12.5 V 1053 c 0,-4.05 0.52,-6.81 1.55,-8.27 1.03,-1.47 2.78,-2.21 5.23,-2.21 1.43,0 2.66,0.2 3.69,0.6 1.03,0.4 1.79,0.76 2.26,1.07 l 1.31,-7.73 c -0.39,-0.32 -1.35,-0.82 -2.85,-1.49 -1.51,-0.68 -3.53,-1.01 -6.07,-1.01 -4.92,0 -8.61,1.36 -11.07,4.1 -2.46,2.74 -3.69,7.28 -3.69,13.63 v 32.96 h -6.9 v 6.42 l 6.9,1.43 1.07,15.95 h 8.57 v -15.95 h 13.69 z m -33.92,0 h -11.66 v -49.27 h -9.64 v 49.27 h -6.9 v 6.42 l 6.9,1.32 v 11.42 c 0,3.09 0.44,5.75 1.31,7.97 0.87,2.22 2.02,4.05 3.45,5.48 1.43,1.42 3.09,2.45 5,3.09 1.9,0.63 3.93,0.95 6.07,0.95 2.06,0 3.81,-0.28 5.23,-0.83 1.43,-0.56 2.38,-0.99 2.86,-1.31 l -2.02,-7.97 c -0.48,0.31 -1.15,0.65 -2.03,1.01 -0.87,0.35 -1.94,0.53 -3.21,0.53 -2.3,0 -4.05,-0.71 -5.24,-2.14 -1.19,-1.43 -1.78,-4.04 -1.78,-7.85 v -10.24 h 12.85 z m -57.59,-42.48 c 1.34,0 2.53,0.19 3.57,0.59 1.03,0.4 1.92,0.88 2.67,1.43 0.76,0.56 1.39,1.17 1.91,1.85 0.51,0.67 0.97,1.25 1.37,1.72 v 12.62 l -3.1,-0.13 c -4.6,-0.15 -8.09,-0.95 -10.47,-2.37 -2.38,-1.43 -3.57,-3.74 -3.57,-6.91 0,-2.93 0.67,-5.13 2.02,-6.6 1.35,-1.47 3.22,-2.2 5.6,-2.2 z m -17.26,7.73 c 0,3.33 0.64,6.11 1.9,8.33 1.27,2.22 2.98,4.03 5.12,5.42 2.14,1.39 4.66,2.38 7.56,2.97 2.89,0.6 5.97,0.9 9.22,0.9 h 2.98 v 5.47 c 0,4.84 -0.86,8.17 -2.56,9.99 -1.71,1.83 -4.11,2.74 -7.2,2.74 -2.86,0 -5.24,-0.61 -7.14,-1.84 -1.91,-1.23 -3.41,-2.33 -4.52,-3.27 l -4.05,6.42 c 0.63,0.63 1.45,1.35 2.44,2.14 0.99,0.79 2.2,1.55 3.63,2.26 1.43,0.72 3.05,1.31 4.88,1.79 1.82,0.48 3.88,0.71 6.19,0.71 5.87,0 10.31,-1.63 13.32,-4.88 3.02,-3.25 4.53,-8.49 4.53,-15.71 v -26.05 c 0,-2.47 0.07,-4.86 0.23,-7.2 0.16,-2.35 0.32,-3.91 0.48,-4.71 h -9.16 l -0.36,6.31 h -0.24 c -0.32,-0.71 -0.79,-1.53 -1.43,-2.44 -0.63,-0.91 -1.42,-1.74 -2.38,-2.5 -0.95,-0.75 -2.1,-1.41 -3.45,-1.96 -1.35,-0.56 -2.93,-0.83 -4.76,-0.83 -2.14,0 -4.14,0.39 -6.01,1.18 -1.86,0.8 -3.49,1.91 -4.88,3.34 -1.38,1.43 -2.46,3.11 -3.21,5.06 -0.75,1.94 -1.13,4.06 -1.13,6.36 z m -20.71,-14.52 v 36.78 c 0,4.83 -0.81,8.3 -2.43,10.41 -1.63,2.1 -4.11,3.15 -7.44,3.15 -2.86,0 -5.24,-0.71 -7.14,-2.14 -1.91,-1.43 -3.41,-2.82 -4.52,-4.17 v -44.03 h -9.64 v 84.14 l 9.64,1.07 v -33.92 h 0.23 c 0.32,0.48 0.82,1.12 1.49,1.91 0.68,0.79 1.61,1.58 2.8,2.38 1.19,0.79 2.64,1.49 4.34,2.08 1.71,0.6 3.71,0.89 6.01,0.89 5,0 8.97,-1.63 11.9,-4.88 2.94,-3.25 4.4,-8.64 4.4,-16.18 v -37.49 z m -45.33,46.06 c -0.24,0.24 -0.62,0.59 -1.13,1.07 -0.52,0.47 -1.18,0.95 -1.97,1.43 -0.79,0.47 -1.74,0.89 -2.85,1.25 -1.12,0.35 -2.38,0.53 -3.81,0.53 -2.07,0 -3.99,-0.38 -5.77,-1.13 -1.79,-0.75 -3.34,-1.96 -4.64,-3.63 -1.31,-1.66 -2.35,-3.83 -3.1,-6.48 -0.75,-2.66 -1.13,-5.89 -1.13,-9.7 0,-4.21 0.34,-7.74 1.01,-10.59 0.68,-2.86 1.61,-5.14 2.8,-6.85 1.19,-1.7 2.64,-2.93 4.34,-3.68 1.71,-0.76 3.59,-1.14 5.65,-1.14 2.94,0 5.18,0.52 6.73,1.55 1.55,1.03 2.64,1.86 3.27,2.5 l 3.93,-6.66 c -0.4,-0.48 -0.97,-1.05 -1.73,-1.73 -0.75,-0.67 -1.72,-1.33 -2.91,-1.96 -1.19,-0.64 -2.64,-1.17 -4.35,-1.61 -1.7,-0.43 -3.67,-0.65 -5.89,-0.65 -3.17,0 -6.15,0.51 -8.92,1.54 -2.78,1.04 -5.2,2.74 -7.26,5.12 -2.06,2.38 -3.69,5.47 -4.88,9.28 -1.19,3.81 -1.79,8.53 -1.79,14.16 0,5.48 0.72,10.12 2.15,13.92 1.42,3.81 3.29,6.89 5.59,9.23 2.3,2.34 4.86,4.04 7.68,5.11 2.81,1.08 5.65,1.61 8.5,1.61 2.15,0 4.03,-0.2 5.66,-0.59 1.62,-0.4 3.01,-0.89 4.16,-1.49 1.15,-0.6 2.1,-1.23 2.86,-1.9 0.75,-0.68 1.37,-1.25 1.84,-1.73 z m -48.794,-0.48 c -0.633,0.72 -1.786,1.69 -3.45,2.92 -1.668,1.23 -3.847,1.84 -6.546,1.84 -2.54,0 -4.481,-0.59 -5.832,-1.78 -1.348,-1.19 -2.02,-2.62 -2.02,-4.29 0,-2.14 0.613,-3.9 1.844,-5.29 1.226,-1.39 3.113,-2.88 5.652,-4.47 l 3.57,-2.14 c 3.887,-2.3 6.942,-4.78 9.161,-7.43 2.222,-2.66 3.332,-6.09 3.332,-10.3 0,-4.52 -1.567,-8.33 -4.7,-11.42 -3.132,-3.1 -7.636,-4.64 -13.507,-4.64 -2.301,0 -4.325,0.24 -6.067,0.71 -1.746,0.47 -3.273,1.03 -4.582,1.67 -1.308,0.63 -2.398,1.32 -3.273,2.08 -0.871,0.75 -1.586,1.45 -2.141,2.08 l 4.641,7.62 c 0.476,-0.48 1.05,-1.03 1.726,-1.67 0.672,-0.63 1.485,-1.25 2.438,-1.84 0.953,-0.6 2.023,-1.09 3.215,-1.49 1.187,-0.4 2.578,-0.6 4.164,-0.6 2.855,0 5.039,0.64 6.543,1.91 1.507,1.27 2.261,2.81 2.261,4.64 0,1.35 -0.175,2.52 -0.535,3.51 -0.355,0.99 -0.89,1.88 -1.605,2.68 -0.715,0.79 -1.586,1.54 -2.617,2.26 -1.032,0.71 -2.223,1.5 -3.571,2.38 l -3.57,2.26 c -3.57,2.3 -6.367,4.72 -8.391,7.26 -2.023,2.54 -3.035,5.79 -3.035,9.76 0,2.14 0.418,4.1 1.25,5.89 0.832,1.78 2.004,3.33 3.512,4.64 1.508,1.31 3.273,2.34 5.297,3.09 2.019,0.75 4.183,1.13 6.484,1.13 2.219,0 4.125,-0.22 5.711,-0.65 1.586,-0.44 2.953,-0.99 4.105,-1.67 1.153,-0.67 2.102,-1.35 2.856,-2.02 0.754,-0.68 1.367,-1.25 1.844,-1.73 z m -35.582,3.69 H 939.941 V 1053 c 0,-4.05 0.516,-6.81 1.547,-8.27 1.032,-1.47 2.778,-2.21 5.235,-2.21 1.429,0 2.66,0.2 3.687,0.6 1.031,0.4 1.785,0.76 2.262,1.07 l 1.308,-7.73 c -0.394,-0.32 -1.347,-0.82 -2.855,-1.49 -1.508,-0.68 -3.527,-1.01 -6.066,-1.01 -4.922,0 -8.61,1.36 -11.071,4.1 -2.457,2.74 -3.687,7.28 -3.687,13.63 v 32.96 h -6.903 v 6.42 l 6.903,1.43 1.07,15.95 h 8.57 v -15.95 h 13.684 z m -33.914,-0.6 c -0.239,0.16 -0.754,0.36 -1.547,0.6 -0.793,0.24 -1.864,0.36 -3.211,0.36 -3.016,0 -5.375,-0.81 -7.082,-2.44 -1.707,-1.63 -2.914,-3.39 -3.629,-5.3 v -41.89 h -9.641 v 57.12 h 8.809 v -7.73 h 0.234 c 0.399,1.11 0.914,2.2 1.551,3.27 0.633,1.07 1.426,2.03 2.379,2.86 0.953,0.83 2.082,1.49 3.39,1.96 1.309,0.48 2.875,0.71 4.7,0.71 1.351,0 2.441,-0.11 3.273,-0.35 0.832,-0.24 1.488,-0.44 1.965,-0.59 z m -44.625,22.26 c -1.985,0 -3.571,0.63 -4.758,1.9 -1.192,1.27 -1.785,2.94 -1.785,5 0,1.98 0.593,3.61 1.785,4.88 1.187,1.27 2.773,1.9 4.758,1.9 1.906,0 3.453,-0.63 4.64,-1.9 1.192,-1.27 1.785,-2.9 1.785,-4.88 0,-2.06 -0.593,-3.73 -1.785,-5 -1.187,-1.27 -2.734,-1.9 -4.64,-1.9 z m 4.761,-70.93 h -9.64 v 57.12 h 9.64 z m -18.566,82.11 -19.992,-82.11 h -9.282 l -12.496,51.65 c -0.871,3.57 -1.625,6.9 -2.257,10 -0.637,3.09 -0.993,5.55 -1.075,7.37 h -0.234 c 0,-1.82 -0.32,-4.24 -0.953,-7.26 -0.637,-3.01 -1.391,-6.3 -2.262,-9.87 l -12.734,-51.89 h -9.282 l -19.515,82.11 h 11.066 l 10.235,-49.97 c 0.793,-3.81 1.488,-7.4 2.082,-10.77 0.597,-3.37 0.933,-5.98 1.011,-7.8 h 0.239 c 0.078,1.82 0.496,4.48 1.25,7.97 0.754,3.49 1.566,7.1 2.437,10.83 l 12.141,49.74 h 9.875 l 11.902,-49.97 c 0.871,-3.81 1.664,-7.4 2.379,-10.77 0.715,-3.37 1.109,-5.98 1.191,-7.8 h 0.239 c 0.078,1.82 0.433,4.5 1.07,8.03 0.633,3.53 1.348,7.2 2.141,11.01 l 10.351,49.5 z m -114.238,-33.44 c -0.239,0.16 -0.754,0.36 -1.547,0.6 -0.793,0.24 -1.864,0.36 -3.215,0.36 -3.016,0 -5.375,-0.81 -7.078,-2.44 -1.707,-1.63 -2.918,-3.39 -3.629,-5.3 v -41.89 h -9.641 v 57.12 h 8.805 v -7.73 h 0.238 c 0.399,1.11 0.914,2.2 1.547,3.27 0.637,1.07 1.43,2.03 2.383,2.86 0.949,0.83 2.082,1.49 3.39,1.96 1.309,0.48 2.875,0.71 4.7,0.71 1.347,0 2.441,-0.11 3.273,-0.35 0.832,-0.24 1.488,-0.44 1.965,-0.59 z m -45.219,24.88 c 0,-1.83 -0.559,-3.3 -1.668,-4.41 -1.11,-1.11 -2.457,-1.66 -4.047,-1.66 -1.586,0 -2.934,0.55 -4.043,1.66 -1.113,1.11 -1.668,2.58 -1.668,4.41 0,1.82 0.555,3.29 1.668,4.4 1.109,1.11 2.457,1.67 4.043,1.67 1.59,0 2.937,-0.56 4.047,-1.67 1.109,-1.11 1.668,-2.58 1.668,-4.4 z m -18.328,0 c 0,-1.83 -0.555,-3.3 -1.664,-4.41 -1.114,-1.11 -2.461,-1.66 -4.047,-1.66 -1.586,0 -2.938,0.55 -4.047,1.66 -1.109,1.11 -1.664,2.58 -1.664,4.41 0,1.82 0.555,3.29 1.664,4.4 1.109,1.11 2.461,1.67 4.047,1.67 1.586,0 2.933,-0.56 4.047,-1.67 1.109,-1.11 1.664,-2.58 1.664,-4.4 z m 23.679,-73.55 h -8.804 v 6.43 h -0.239 c -0.238,-0.47 -0.753,-1.17 -1.546,-2.08 -0.793,-0.91 -1.805,-1.79 -3.036,-2.62 -1.226,-0.83 -2.714,-1.57 -4.461,-2.2 -1.746,-0.64 -3.687,-0.95 -5.832,-0.95 -2.539,0 -4.82,0.37 -6.839,1.13 -2.024,0.75 -3.75,1.96 -5.18,3.62 -1.426,1.67 -2.52,3.83 -3.27,6.49 -0.754,2.66 -1.132,5.93 -1.132,9.82 v 37.48 h 9.64 v -36.77 c 0,-4.76 0.774,-8.15 2.32,-10.17 1.547,-2.02 3.946,-3.04 7.2,-3.04 2.777,0 5.117,0.7 7.019,2.09 1.906,1.39 3.41,2.75 4.524,4.1 v 43.79 h 9.636 z m -49.504,49.27 h -11.66 v -49.27 h -9.64 v 49.27 h -6.903 v 6.42 l 6.903,1.32 v 11.42 c 0,3.09 0.437,5.75 1.308,7.97 0.875,2.22 2.024,4.05 3.453,5.48 1.426,1.42 3.094,2.45 4.997,3.09 1.906,0.63 3.929,0.95 6.07,0.95 2.062,0 3.808,-0.28 5.234,-0.83 1.43,-0.56 2.383,-0.99 2.86,-1.31 l -2.024,-7.97 c -0.476,0.31 -1.152,0.65 -2.023,1.01 -0.875,0.35 -1.946,0.53 -3.215,0.53 -2.301,0 -4.043,-0.71 -5.235,-2.14 -1.191,-1.43 -1.785,-4.04 -1.785,-7.85 v -10.24 h 12.852 z m 749.58,70.73 v 36.78 c 0,4.68 -0.67,8.05 -2.02,10.11 -1.35,2.06 -3.53,3.09 -6.55,3.09 -1.58,0 -2.99,-0.19 -4.22,-0.59 -1.23,-0.4 -2.32,-0.89 -3.27,-1.49 -0.95,-0.59 -1.79,-1.25 -2.5,-1.96 -0.72,-0.71 -1.31,-1.35 -1.79,-1.91 v -44.03 h -9.64 v 57.12 h 8.81 v -6.42 h 0.24 c 0.4,0.63 0.99,1.4 1.78,2.32 0.8,0.91 1.79,1.78 2.98,2.62 1.19,0.83 2.58,1.52 4.16,2.08 1.59,0.55 3.38,0.83 5.36,0.83 6.5,0 11.11,-2.54 13.8,-7.61 0.56,0.79 1.31,1.64 2.26,2.56 0.96,0.91 2.07,1.74 3.34,2.5 1.26,0.75 2.69,1.36 4.28,1.84 1.59,0.48 3.33,0.71 5.24,0.71 11.58,0 17.37,-6.74 17.37,-20.23 v -38.32 h -9.64 v 36.78 c 0,4.68 -0.83,8.05 -2.5,10.11 -1.66,2.06 -4.12,3.09 -7.38,3.09 -2.69,0 -4.93,-0.65 -6.72,-1.96 -1.78,-1.31 -3.19,-2.56 -4.22,-3.75 0.15,-0.87 0.27,-1.8 0.35,-2.79 0.08,-1 0.12,-2.05 0.12,-3.16 v -38.32 z m -44.74,0 h -8.81 v 6.43 h -0.24 c -0.23,-0.47 -0.75,-1.17 -1.54,-2.08 -0.8,-0.91 -1.81,-1.79 -3.04,-2.62 -1.23,-0.83 -2.71,-1.57 -4.46,-2.2 -1.74,-0.64 -3.69,-0.95 -5.83,-0.95 -2.54,0 -4.82,0.37 -6.84,1.13 -2.03,0.75 -3.75,1.96 -5.18,3.62 -1.43,1.67 -2.52,3.83 -3.27,6.49 -0.76,2.66 -1.13,5.93 -1.13,9.82 v 37.48 h 9.64 v -36.77 c 0,-4.76 0.77,-8.15 2.32,-10.17 1.54,-2.02 3.94,-3.04 7.2,-3.04 2.77,0 5.11,0.7 7.02,2.09 1.9,1.39 3.41,2.75 4.52,4.1 v 43.79 h 9.64 z m -59.5,70.93 c -1.98,0 -3.57,0.63 -4.76,1.9 -1.19,1.27 -1.79,2.94 -1.79,5 0,1.98 0.6,3.61 1.79,4.88 1.19,1.27 2.78,1.9 4.76,1.9 1.9,0 3.45,-0.63 4.64,-1.9 1.19,-1.27 1.78,-2.9 1.78,-4.88 0,-2.06 -0.59,-3.73 -1.78,-5 -1.19,-1.27 -2.74,-1.9 -4.64,-1.9 z m 4.76,-70.93 h -9.64 v 57.12 h 9.64 z m -19.16,48.67 c -0.24,0.16 -0.75,0.36 -1.55,0.6 -0.79,0.24 -1.86,0.36 -3.21,0.36 -3.02,0 -5.38,-0.81 -7.08,-2.44 -1.71,-1.63 -2.92,-3.39 -3.63,-5.3 v -41.89 h -9.64 v 57.12 h 8.81 v -7.73 h 0.23 c 0.4,1.11 0.92,2.2 1.55,3.27 0.64,1.07 1.43,2.03 2.38,2.86 0.95,0.83 2.08,1.49 3.39,1.96 1.31,0.48 2.88,0.71 4.7,0.71 1.35,0 2.44,-0.11 3.28,-0.35 0.83,-0.24 1.48,-0.44 1.96,-0.59 z m -56.05,2.03 c -3.41,0 -6.15,-1.43 -8.21,-4.29 -2.06,-2.85 -3.25,-6.98 -3.57,-12.37 h 20.82 c 0.08,0.4 0.14,0.97 0.18,1.72 0.04,0.76 0.06,1.57 0.06,2.44 0,3.97 -0.79,7.05 -2.38,9.22 -1.58,2.19 -3.88,3.28 -6.9,3.28 z m 18.09,-12.85 c 0,-2.46 -0.08,-4.59 -0.24,-6.37 -0.16,-1.79 -0.32,-3.35 -0.48,-4.7 h -29.15 c 0.32,-6.74 1.76,-11.7 4.34,-14.87 2.58,-3.18 6.29,-4.77 11.13,-4.77 1.67,0 3.17,0.2 4.52,0.6 1.35,0.4 2.52,0.87 3.51,1.43 0.99,0.55 1.83,1.11 2.5,1.66 0.68,0.56 1.17,1 1.49,1.31 l 3.57,-6.78 c -0.4,-0.4 -0.99,-0.97 -1.79,-1.72 -0.79,-0.76 -1.86,-1.51 -3.21,-2.27 -1.35,-0.75 -3.01,-1.41 -5,-1.96 -1.98,-0.56 -4.32,-0.83 -7.02,-0.83 -3.57,0 -6.8,0.59 -9.7,1.78 -2.89,1.19 -5.35,3.04 -7.37,5.53 -2.03,2.5 -3.59,5.68 -4.71,9.53 -1.11,3.84 -1.66,8.46 -1.66,13.86 0,5.07 0.57,9.46 1.72,13.15 1.15,3.69 2.72,6.72 4.7,9.1 1.99,2.38 4.29,4.14 6.91,5.3 2.61,1.15 5.43,1.72 8.45,1.72 5.47,0 9.75,-1.72 12.85,-5.17 3.09,-3.46 4.64,-8.63 4.64,-15.53 z m -46.77,11.42 H 1190.2 V 1173 c 0,-4.05 0.51,-6.81 1.54,-8.27 1.03,-1.47 2.78,-2.21 5.24,-2.21 1.43,0 2.66,0.2 3.69,0.6 1.03,0.4 1.78,0.76 2.26,1.07 l 1.31,-7.73 c -0.4,-0.32 -1.35,-0.82 -2.86,-1.49 -1.5,-0.68 -3.53,-1.01 -6.07,-1.01 -4.92,0 -8.6,1.36 -11.06,4.1 -2.46,2.74 -3.69,7.28 -3.69,13.63 v 32.96 h -6.9 v 6.42 l 6.9,1.43 1.07,15.95 h 8.57 v -15.95 h 13.68 z m -41.41,-3.69 c -0.64,0.72 -1.79,1.69 -3.45,2.92 -1.67,1.23 -3.85,1.84 -6.55,1.84 -2.54,0 -4.48,-0.59 -5.83,-1.78 -1.35,-1.19 -2.02,-2.62 -2.02,-4.29 0,-2.14 0.61,-3.9 1.84,-5.29 1.23,-1.39 3.12,-2.88 5.66,-4.47 l 3.57,-2.14 c 3.88,-2.3 6.94,-4.78 9.16,-7.43 2.22,-2.66 3.33,-6.09 3.33,-10.3 0,-4.52 -1.57,-8.33 -4.7,-11.42 -3.13,-3.1 -7.63,-4.64 -13.51,-4.64 -2.3,0 -4.32,0.24 -6.06,0.71 -1.75,0.47 -3.28,1.03 -4.59,1.67 -1.3,0.63 -2.4,1.32 -3.27,2.08 -0.87,0.75 -1.59,1.45 -2.14,2.08 l 4.64,7.62 c 0.48,-0.48 1.05,-1.03 1.73,-1.67 0.67,-0.63 1.48,-1.25 2.44,-1.84 0.95,-0.6 2.02,-1.09 3.21,-1.49 1.19,-0.4 2.58,-0.6 4.16,-0.6 2.86,0 5.04,0.64 6.55,1.91 1.51,1.27 2.26,2.81 2.26,4.64 0,1.35 -0.18,2.52 -0.54,3.51 -0.35,0.99 -0.89,1.88 -1.6,2.68 -0.72,0.79 -1.59,1.54 -2.62,2.26 -1.03,0.71 -2.22,1.5 -3.57,2.38 l -3.57,2.26 c -3.57,2.3 -6.37,4.72 -8.39,7.26 -2.02,2.54 -3.03,5.79 -3.03,9.76 0,2.14 0.41,4.1 1.25,5.89 0.83,1.78 2,3.33 3.51,4.64 1.5,1.31 3.27,2.34 5.29,3.09 2.02,0.75 4.19,1.13 6.49,1.13 2.22,0 4.12,-0.22 5.71,-0.65 1.59,-0.44 2.95,-0.99 4.1,-1.67 1.15,-0.67 2.11,-1.35 2.86,-2.02 0.75,-0.68 1.37,-1.25 1.84,-1.73 z m -44.15,25.35 c -1.98,0 -3.57,0.63 -4.76,1.9 -1.19,1.27 -1.78,2.94 -1.78,5 0,1.98 0.59,3.61 1.78,4.88 1.19,1.27 2.78,1.9 4.76,1.9 1.9,0 3.45,-0.63 4.64,-1.9 1.19,-1.27 1.79,-2.9 1.79,-4.88 0,-2.06 -0.6,-3.73 -1.79,-5 -1.19,-1.27 -2.74,-1.9 -4.64,-1.9 z m 4.76,-70.93 h -9.64 v 57.12 h 9.64 z m -33.68,0 v 36.78 c 0,4.83 -0.81,8.3 -2.44,10.41 -1.62,2.1 -4.1,3.15 -7.43,3.15 -2.86,0 -5.24,-0.71 -7.14,-2.14 -1.91,-1.43 -3.41,-2.82 -4.53,-4.17 v -44.03 h -9.63 v 57.12 h 8.8 v -6.42 h 0.24 c 0.24,0.47 0.75,1.17 1.55,2.08 0.79,0.91 1.82,1.79 3.09,2.62 1.27,0.83 2.78,1.56 4.52,2.2 1.75,0.63 3.73,0.95 5.95,0.95 2.54,0 4.84,-0.38 6.9,-1.13 2.07,-0.75 3.81,-1.96 5.24,-3.63 1.43,-1.66 2.54,-3.83 3.33,-6.48 0.8,-2.66 1.19,-5.93 1.19,-9.82 v -37.49 z m -50.69,70.93 c -1.98,0 -3.57,0.63 -4.76,1.9 -1.19,1.27 -1.79,2.94 -1.79,5 0,1.98 0.6,3.61 1.79,4.88 1.19,1.27 2.78,1.9 4.76,1.9 1.9,0 3.45,-0.63 4.64,-1.9 1.19,-1.27 1.79,-2.9 1.79,-4.88 0,-2.06 -0.6,-3.73 -1.79,-5 -1.19,-1.27 -2.74,-1.9 -4.64,-1.9 z m 4.76,-70.93 h -9.64 v 57.12 h 9.64 z m -63.667,0 v 36.78 c 0,4.68 -0.672,8.05 -2.019,10.11 -1.352,2.06 -3.531,3.09 -6.547,3.09 -1.586,0 -2.996,-0.19 -4.223,-0.59 -1.23,-0.4 -2.32,-0.89 -3.273,-1.49 -0.953,-0.59 -1.785,-1.25 -2.5,-1.96 -0.715,-0.71 -1.309,-1.35 -1.785,-1.91 v -44.03 h -9.637 v 57.12 h 8.805 v -6.42 h 0.238 c 0.394,0.63 0.992,1.4 1.785,2.32 0.793,0.91 1.785,1.78 2.973,2.62 1.191,0.83 2.578,1.52 4.168,2.08 1.586,0.55 3.371,0.83 5.351,0.83 6.508,0 11.11,-2.54 13.805,-7.61 0.555,0.79 1.309,1.64 2.262,2.56 0.953,0.91 2.062,1.74 3.332,2.5 1.269,0.75 2.699,1.36 4.285,1.84 1.586,0.48 3.332,0.71 5.237,0.71 11.58,0 17.37,-6.74 17.37,-20.23 v -38.32 h -9.64 v 36.78 c 0,4.68 -0.83,8.05 -2.5,10.11 -1.66,2.06 -4.12,3.09 -7.373,3.09 -2.7,0 -4.938,-0.65 -6.723,-1.96 -1.785,-1.31 -3.195,-2.56 -4.227,-3.75 0.161,-0.87 0.278,-1.8 0.36,-2.79 0.078,-1 0.117,-2.05 0.117,-3.16 v -38.32 z m -47.004,45.58 c -0.632,0.72 -1.785,1.69 -3.449,2.92 -1.668,1.23 -3.847,1.84 -6.547,1.84 -2.539,0 -4.48,-0.59 -5.832,-1.78 -1.347,-1.19 -2.019,-2.62 -2.019,-4.29 0,-2.14 0.613,-3.9 1.843,-5.29 1.231,-1.39 3.114,-2.88 5.653,-4.47 l 3.57,-2.14 c 3.887,-2.3 6.942,-4.78 9.16,-7.43 2.223,-2.66 3.332,-6.09 3.332,-10.3 0,-4.52 -1.566,-8.33 -4.699,-11.42 -3.133,-3.1 -7.637,-4.64 -13.508,-4.64 -2.3,0 -4.32,0.24 -6.066,0.71 -1.746,0.47 -3.274,1.03 -4.582,1.67 -1.309,0.63 -2.399,1.32 -3.274,2.08 -0.871,0.75 -1.586,1.45 -2.14,2.08 l 4.64,7.62 c 0.477,-0.48 1.051,-1.03 1.727,-1.67 0.672,-0.63 1.484,-1.25 2.437,-1.84 0.954,-0.6 2.024,-1.09 3.215,-1.49 1.188,-0.4 2.578,-0.6 4.164,-0.6 2.856,0 5.039,0.64 6.543,1.91 1.508,1.27 2.262,2.81 2.262,4.64 0,1.35 -0.176,2.52 -0.535,3.51 -0.356,0.99 -0.891,1.88 -1.606,2.68 -0.714,0.79 -1.585,1.54 -2.617,2.26 -1.031,0.71 -2.222,1.5 -3.57,2.38 l -3.57,2.26 c -3.571,2.3 -6.368,4.72 -8.391,7.26 -2.023,2.54 -3.035,5.79 -3.035,9.76 0,2.14 0.418,4.1 1.25,5.89 0.836,1.78 2.004,3.33 3.512,4.64 1.507,1.31 3.273,2.34 5.296,3.09 2.024,0.75 4.184,1.13 6.485,1.13 2.219,0 4.125,-0.22 5.711,-0.65 1.586,-0.44 2.957,-0.99 4.105,-1.67 1.153,-0.67 2.102,-1.35 2.856,-2.02 0.754,-0.68 1.371,-1.25 1.843,-1.73 z m -55.574,5.12 c -3.41,0 -6.144,-1.43 -8.211,-4.29 -2.062,-2.85 -3.25,-6.98 -3.566,-12.37 h 20.824 c 0.078,0.4 0.137,0.97 0.18,1.72 0.039,0.76 0.058,1.57 0.058,2.44 0,3.97 -0.793,7.05 -2.382,9.22 -1.586,2.19 -3.887,3.28 -6.903,3.28 z m 18.09,-12.85 c 0,-2.46 -0.078,-4.59 -0.238,-6.37 -0.16,-1.79 -0.317,-3.35 -0.477,-4.7 h -29.152 c 0.316,-6.74 1.762,-11.7 4.344,-14.87 2.578,-3.18 6.285,-4.77 11.125,-4.77 1.664,0 3.171,0.2 4.519,0.6 1.352,0.4 2.52,0.87 3.512,1.43 0.992,0.55 1.824,1.11 2.5,1.66 0.676,0.56 1.172,1 1.488,1.31 l 3.57,-6.78 c -0.398,-0.4 -0.992,-0.97 -1.785,-1.72 -0.793,-0.76 -1.863,-1.51 -3.215,-2.27 -1.347,-0.75 -3.015,-1.41 -4.996,-1.96 -1.984,-0.56 -4.324,-0.83 -7.023,-0.83 -3.57,0 -6.801,0.59 -9.695,1.78 -2.899,1.19 -5.356,3.04 -7.379,5.53 -2.024,2.5 -3.59,5.68 -4.703,9.53 -1.11,3.84 -1.665,8.46 -1.665,13.86 0,5.07 0.575,9.46 1.727,13.15 1.148,3.69 2.715,6.72 4.699,9.1 1.985,2.38 4.285,4.14 6.903,5.3 2.617,1.15 5.433,1.72 8.449,1.72 5.472,0 9.758,-1.72 12.851,-5.17 3.094,-3.46 4.641,-8.63 4.641,-15.53 z m -71.758,-30.71 c 1.508,0 2.856,0.2 4.047,0.6 1.191,0.4 2.223,0.89 3.094,1.49 0.875,0.59 1.605,1.21 2.203,1.84 0.594,0.64 1.051,1.19 1.367,1.67 v 35.22 c -0.875,0.55 -1.883,1.03 -3.035,1.43 -1.148,0.4 -2.598,0.59 -4.344,0.59 -2.219,0 -4.304,-0.37 -6.246,-1.13 -1.945,-0.75 -3.629,-2 -5.058,-3.75 -1.426,-1.74 -2.559,-4 -3.391,-6.78 -0.832,-2.77 -1.25,-6.18 -1.25,-10.23 0,-3.97 0.336,-7.28 1.012,-9.94 0.675,-2.65 1.605,-4.8 2.797,-6.42 1.191,-1.63 2.539,-2.8 4.046,-3.52 1.504,-0.71 3.094,-1.07 4.758,-1.07 z m -22.609,20.59 c 0,5.79 0.754,10.63 2.262,14.52 1.507,3.89 3.449,7.02 5.832,9.4 2.378,2.38 5.074,4.07 8.089,5.06 3.016,0.99 6.032,1.48 9.043,1.48 1.829,0 3.414,-0.13 4.762,-0.41 1.348,-0.28 2.457,-0.62 3.332,-1.01 v 27.37 l 9.641,1.07 v -85.21 h -8.809 v 6.07 h -0.238 c -0.238,-0.47 -0.672,-1.13 -1.309,-1.96 -0.633,-0.83 -1.508,-1.67 -2.617,-2.5 -1.109,-0.83 -2.5,-1.54 -4.164,-2.14 -1.668,-0.6 -3.609,-0.89 -5.832,-0.89 -2.695,0 -5.258,0.53 -7.676,1.6 -2.418,1.07 -4.543,2.78 -6.367,5.12 -1.824,2.34 -3.269,5.36 -4.344,9.04 -1.07,3.69 -1.605,8.16 -1.605,13.39 z m -21.418,-27.73 v 36.78 c 0,4.83 -0.817,8.3 -2.442,10.41 -1.625,2.1 -4.105,3.15 -7.437,3.15 -2.856,0 -5.234,-0.71 -7.141,-2.14 -1.902,-1.43 -3.41,-2.82 -4.519,-4.17 v -44.03 h -9.641 v 57.12 h 8.805 v -6.42 h 0.238 c 0.238,0.47 0.754,1.17 1.547,2.08 0.793,0.91 1.824,1.79 3.094,2.62 1.269,0.83 2.777,1.56 4.523,2.2 1.746,0.63 3.731,0.95 5.949,0.95 2.539,0 4.84,-0.38 6.903,-1.13 2.062,-0.75 3.808,-1.96 5.234,-3.63 1.43,-1.66 2.539,-3.83 3.332,-6.48 0.793,-2.66 1.192,-5.93 1.192,-9.82 v -37.49 z m -45.938,0 h -8.804 v 6.43 h -0.239 c -0.238,-0.47 -0.754,-1.17 -1.546,-2.08 -0.793,-0.91 -1.805,-1.79 -3.036,-2.62 -1.226,-0.83 -2.714,-1.57 -4.461,-2.2 -1.746,-0.64 -3.687,-0.95 -5.832,-0.95 -2.539,0 -4.816,0.37 -6.839,1.13 -2.024,0.75 -3.75,1.96 -5.18,3.62 -1.426,1.67 -2.52,3.83 -3.27,6.49 -0.754,2.66 -1.132,5.93 -1.132,9.82 v 37.48 h 9.64 v -36.77 c 0,-4.76 0.774,-8.15 2.32,-10.17 1.547,-2.02 3.946,-3.04 7.2,-3.04 2.777,0 5.117,0.7 7.019,2.09 1.906,1.39 3.41,2.75 4.524,4.1 v 43.79 h 9.636 z m -63.781,22.97 c 0,4.44 -1.449,7.95 -4.344,10.53 -2.894,2.58 -7.043,3.87 -12.437,3.87 h -7.02 v -28.8 h 6.426 c 6.109,0 10.531,1.21 13.27,3.63 2.738,2.42 4.105,6.01 4.105,10.77 z m -1.547,37.84 c 0,3.81 -1.351,6.95 -4.047,9.4 -2.699,2.46 -6.941,3.69 -12.734,3.69 h -5.473 v -28.32 h 5.356 c 5.551,0 9.758,1.35 12.613,4.05 2.856,2.69 4.285,6.42 4.285,11.18 z m 10.473,0.36 c 0,-2.85 -0.359,-5.35 -1.074,-7.5 -0.711,-2.14 -1.684,-3.98 -2.914,-5.53 -1.231,-1.55 -2.657,-2.8 -4.286,-3.75 -1.625,-0.95 -3.312,-1.66 -5.054,-2.14 v -0.24 c 2.14,-0.4 4.144,-1.15 6.008,-2.26 1.863,-1.11 3.492,-2.5 4.878,-4.17 1.387,-1.66 2.5,-3.62 3.333,-5.89 0.832,-2.26 1.25,-4.73 1.25,-7.43 0,-3.26 -0.555,-6.23 -1.668,-8.93 -1.11,-2.69 -2.836,-5.03 -5.176,-7.02 -2.34,-1.98 -5.293,-3.53 -8.864,-4.64 -3.57,-1.11 -7.816,-1.67 -12.734,-1.67 h -16.777 v 82.11 h 15.824 c 4.84,0 8.984,-0.49 12.437,-1.48 3.45,-0.99 6.286,-2.4 8.508,-4.23 2.223,-1.82 3.828,-4.02 4.821,-6.6 0.992,-2.58 1.488,-5.46 1.488,-8.63"
         style="fill:#231f20;fill-opacity:1;fill-rule:nonzero;stroke:none"
         id="path146" />
    </g>
  </g>
</svg>
