<svg class="main-svg" xmlns="http://www.w3.org/2000/svg" xmlns:xlink="http://www.w3.org/1999/xlink" width="1000" height="800" style="" viewBox="0 0 1000 800"><rect x="0" y="0" width="1000" height="800" style="fill: rgb(255, 255, 255); fill-opacity: 1;"/><defs id="defs-22ceb1"><g class="clips"><clipPath id="clip22ceb1xyplot" class="plotclip"><rect width="900" height="800"/></clipPath><clipPath class="axesclip" id="clip22ceb1x"><rect x="0" y="0" width="900" height="800"/></clipPath><clipPath class="axesclip" id="clip22ceb1y"><rect x="0" y="0" width="1000" height="800"/></clipPath><clipPath class="axesclip" id="clip22ceb1xy"><rect x="0" y="0" width="900" height="800"/></clipPath></g><g class="gradients"/><g class="patterns"/></defs><g class="bglayer"><rect class="bg" x="0" y="0" width="900" height="800" style="fill: rgb(229, 236, 246); fill-opacity: 1; stroke-width: 0;"/></g><g class="layer-below"><g class="imagelayer"/><g class="shapelayer"/></g><g class="cartesianlayer"><g class="subplot xy"><g class="layer-subplot"><g class="shapelayer"/><g class="imagelayer"/></g><g class="minor-gridlayer"><g class="x"/><g class="y"/></g><g class="gridlayer"><g class="x"/><g class="y"/></g><g class="zerolinelayer"/><g class="layer-between"><g class="shapelayer"/><g class="imagelayer"/></g><path class="xlines-below"/><path class="ylines-below"/><g class="overlines-below"/><g class="xaxislayer-below"/><g class="yaxislayer-below"/><g class="overaxes-below"/><g class="overplot"><g class="xy" transform="" clip-path="url(#clip22ceb1xyplot)"><g class="scatterlayer mlayer"><g class="trace scatter tracebe85f1" style="stroke-miterlimit: 2; opacity: 1;"><g class="fills"/><g class="errorbars"/><g class="lines"><path class="js-line" d="M850,279.7L685.6287857568757,316.00592525137444" style="vector-effect: none; fill: none; stroke: rgb(160, 160, 160); stroke-opacity: 1; stroke-dasharray: 3px, 3px; stroke-width: 0.5px; opacity: 1;"/><path class="js-line" d="M679.77,317.3L479.94417334546307,342.139851520182" style="vector-effect: none; fill: none; stroke: rgb(160, 160, 160); stroke-opacity: 1; stroke-dasharray: 3px, 3px; stroke-width: 0.5px; opacity: 1;"/><path class="js-line" d="M50,89.44L167.4550878732337,172.70015342252194" style="vector-effect: none; fill: none; stroke: rgb(160, 160, 160); stroke-opacity: 1; stroke-dasharray: 3px, 3px; stroke-width: 0.5px; opacity: 1;"/><path class="js-line" d="M473.99,342.88L458.38112115472757,257.6717943922845" style="vector-effect: none; fill: none; stroke: rgb(160, 160, 160); stroke-opacity: 1; stroke-dasharray: 3px, 3px; stroke-width: 0.5px; opacity: 1;"/><path class="js-line" d="M330.29,181.94L452.04225886546794,248.8792979810694" style="vector-effect: none; fill: none; stroke: rgb(160, 160, 160); stroke-opacity: 1; stroke-dasharray: 3px, 3px; stroke-width: 0.5px; opacity: 1;"/><path class="js-line" d="M382.6,380.99L454.29714236601814,256.96450151891753" style="vector-effect: none; fill: none; stroke: rgb(160, 160, 160); stroke-opacity: 1; stroke-dasharray: 3px, 3px; stroke-width: 0.5px; opacity: 1;"/><path class="js-line" d="M324.57,356.26L452.58558007612686,255.48136696937772" style="vector-effect: none; fill: none; stroke: rgb(160, 160, 160); stroke-opacity: 1; stroke-dasharray: 3px, 3px; stroke-width: 0.5px; opacity: 1;"/><path class="js-line" d="M457.3,251.77L572.1283573232603,159.22507034474313" style="vector-effect: none; fill: none; stroke: rgb(160, 160, 160); stroke-opacity: 1; stroke-dasharray: 3px, 3px; stroke-width: 0.5px; opacity: 1;"/><path class="js-line" d="M473.99,342.88L494.84237189758716,276.88123069307363" style="vector-effect: none; fill: none; stroke: rgb(160, 160, 160); stroke-opacity: 1; stroke-dasharray: 3px, 3px; stroke-width: 0.5px; opacity: 1;"/><path class="js-line" d="M330.29,181.94L491.3624248578447,268.32423747184964" style="vector-effect: none; fill: none; stroke: rgb(160, 160, 160); stroke-opacity: 1; stroke-dasharray: 3px, 3px; stroke-width: 0.5px; opacity: 1;"/><path class="js-line" d="M382.6,380.99L492.32815585693123,275.3219302256312" style="vector-effect: none; fill: none; stroke: rgb(160, 160, 160); stroke-opacity: 1; stroke-dasharray: 3px, 3px; stroke-width: 0.5px; opacity: 1;"/><path class="js-line" d="M324.57,356.26L491.2717366537773,273.81975250327497" style="vector-effect: none; fill: none; stroke: rgb(160, 160, 160); stroke-opacity: 1; stroke-dasharray: 3px, 3px; stroke-width: 0.5px; opacity: 1;"/><path class="js-line" d="M496.65,271.16L573.3832994182992,160.39215542486306" style="vector-effect: none; fill: none; stroke: rgb(160, 160, 160); stroke-opacity: 1; stroke-dasharray: 3px, 3px; stroke-width: 0.5px; opacity: 1;"/><path class="js-line" d="M473.99,342.88L345.25811186502585,264.12128263449364" style="vector-effect: none; fill: none; stroke: rgb(160, 160, 160); stroke-opacity: 1; stroke-dasharray: 3px, 3px; stroke-width: 0.5px; opacity: 1;"/><path class="js-line" d="M172.35,176.17L334.7852966714951,258.2831286946553" style="vector-effect: none; fill: none; stroke: rgb(160, 160, 160); stroke-opacity: 1; stroke-dasharray: 3px, 3px; stroke-width: 0.5px; opacity: 1;"/><path class="js-line" d="M382.6,380.99L342.1414074544649,266.64635644219953" style="vector-effect: none; fill: none; stroke: rgb(160, 160, 160); stroke-opacity: 1; stroke-dasharray: 3px, 3px; stroke-width: 0.5px; opacity: 1;"/><path class="js-line" d="M324.57,356.26L339.1722572671687,266.9114418854745" style="vector-effect: none; fill: none; stroke: rgb(160, 160, 160); stroke-opacity: 1; stroke-dasharray: 3px, 3px; stroke-width: 0.5px; opacity: 1;"/><path class="js-line" d="M340.14,260.99L331.0318908475301,187.8939564971833" style="vector-effect: none; fill: none; stroke: rgb(160, 160, 160); stroke-opacity: 1; stroke-dasharray: 3px, 3px; stroke-width: 0.5px; opacity: 1;"/><path class="js-line" d="M473.99,342.88L292.405660448066,276.53896365050593" style="vector-effect: none; fill: none; stroke: rgb(160, 160, 160); stroke-opacity: 1; stroke-dasharray: 3px, 3px; stroke-width: 0.5px; opacity: 1;"/><path class="js-line" d="M172.35,176.17L282.2190960550688,270.5698499665602" style="vector-effect: none; fill: none; stroke: rgb(160, 160, 160); stroke-opacity: 1; stroke-dasharray: 3px, 3px; stroke-width: 0.5px; opacity: 1;"/><path class="js-line" d="M382.6,380.99L290.7831173794156,278.94036869541435" style="vector-effect: none; fill: none; stroke: rgb(160, 160, 160); stroke-opacity: 1; stroke-dasharray: 3px, 3px; stroke-width: 0.5px; opacity: 1;"/><path class="js-line" d="M324.57,356.26L289.2873894222273,279.92635203570774" style="vector-effect: none; fill: none; stroke: rgb(160, 160, 160); stroke-opacity: 1; stroke-dasharray: 3px, 3px; stroke-width: 0.5px; opacity: 1;"/><path class="js-line" d="M286.77,274.48L327.73657414318586,187.3695502938782" style="vector-effect: none; fill: none; stroke: rgb(160, 160, 160); stroke-opacity: 1; stroke-dasharray: 3px, 3px; stroke-width: 0.5px; opacity: 1;"/><path class="js-line" d="M88.03,418.63L185.89381464497268,329.50983409261335" style="vector-effect: none; fill: none; stroke: rgb(160, 160, 160); stroke-opacity: 1; stroke-dasharray: 3px, 3px; stroke-width: 0.5px; opacity: 1;"/><path class="js-line" d="M382.6,380.99L196.09448224372824,327.1345553345389" style="vector-effect: none; fill: none; stroke: rgb(160, 160, 160); stroke-opacity: 1; stroke-dasharray: 3px, 3px; stroke-width: 0.5px; opacity: 1;"/><path class="js-line" d="M324.57,356.26L196.17814086160948,326.81136067587124" style="vector-effect: none; fill: none; stroke: rgb(160, 160, 160); stroke-opacity: 1; stroke-dasharray: 3px, 3px; stroke-width: 0.5px; opacity: 1;"/><path class="js-line" d="M190.33,325.47L326.1011191759231,186.23572781280197" style="vector-effect: none; fill: none; stroke: rgb(160, 160, 160); stroke-opacity: 1; stroke-dasharray: 3px, 3px; stroke-width: 0.5px; opacity: 1;"/><path class="js-line" d="M473.99,342.88L437.00042233802304,456.9724666298877" style="vector-effect: none; fill: none; stroke: rgb(160, 160, 160); stroke-opacity: 1; stroke-dasharray: 3px, 3px; stroke-width: 0.5px; opacity: 1;"/><path class="js-line" d="M382.6,380.99L431.9039248168557,457.6339128123491" style="vector-effect: none; fill: none; stroke: rgb(160, 160, 160); stroke-opacity: 1; stroke-dasharray: 3px, 3px; stroke-width: 0.5px; opacity: 1;"/><path class="js-line" d="M324.57,356.26L430.826820069617,458.5194573323263" style="vector-effect: none; fill: none; stroke: rgb(160, 160, 160); stroke-opacity: 1; stroke-dasharray: 3px, 3px; stroke-width: 0.5px; opacity: 1;"/><path class="js-line" d="M435.15,462.68L270.3750110799486,562.2665082231774" style="vector-effect: none; fill: none; stroke: rgb(160, 160, 160); stroke-opacity: 1; stroke-dasharray: 3px, 3px; stroke-width: 0.5px; opacity: 1;"/><path class="js-line" d="M382.6,380.99L341.56576730654547,492.88682989470334" style="vector-effect: none; fill: none; stroke: rgb(160, 160, 160); stroke-opacity: 1; stroke-dasharray: 3px, 3px; stroke-width: 0.5px; opacity: 1;"/><path class="js-line" d="M324.57,356.26L338.87374728696176,492.5527722065089" style="vector-effect: none; fill: none; stroke: rgb(160, 160, 160); stroke-opacity: 1; stroke-dasharray: 3px, 3px; stroke-width: 0.5px; opacity: 1;"/><path class="js-line" d="M339.5,498.52L269.6992871028102,561.3556808130505" style="vector-effect: none; fill: none; stroke: rgb(160, 160, 160); stroke-opacity: 1; stroke-dasharray: 3px, 3px; stroke-width: 0.5px; opacity: 1;"/><path class="js-line" d="M473.99,342.88L295.065100418192,439.03962791704566" style="vector-effect: none; fill: none; stroke: rgb(160, 160, 160); stroke-opacity: 1; stroke-dasharray: 3px, 3px; stroke-width: 0.5px; opacity: 1;"/><path class="js-line" d="M265.24,565.37L288.61054398861677,447.76492758132497" style="vector-effect: none; fill: none; stroke: rgb(160, 160, 160); stroke-opacity: 1; stroke-dasharray: 3px, 3px; stroke-width: 0.5px; opacity: 1;"/><path class="js-line" d="M382.6,380.99L294.7968607178919,438.58893504511485" style="vector-effect: none; fill: none; stroke: rgb(160, 160, 160); stroke-opacity: 1; stroke-dasharray: 3px, 3px; stroke-width: 0.5px; opacity: 1;"/><path class="js-line" d="M324.57,356.26L292.03864538844516,436.32135618974775" style="vector-effect: none; fill: none; stroke: rgb(160, 160, 160); stroke-opacity: 1; stroke-dasharray: 3px, 3px; stroke-width: 0.5px; opacity: 1;"/><path class="js-line" d="M289.78,441.88L93.99055059901694,419.3169036006302" style="vector-effect: none; fill: none; stroke: rgb(160, 160, 160); stroke-opacity: 1; stroke-dasharray: 3px, 3px; stroke-width: 0.5px; opacity: 1;"/><path class="js-line" d="M265.24,565.37L206.76988357900348,464.5404335889062" style="vector-effect: none; fill: none; stroke: rgb(160, 160, 160); stroke-opacity: 1; stroke-dasharray: 3px, 3px; stroke-width: 0.5px; opacity: 1;"/><path class="js-line" d="M382.6,380.99L209.25561728284384,456.942056753055" style="vector-effect: none; fill: none; stroke: rgb(160, 160, 160); stroke-opacity: 1; stroke-dasharray: 3px, 3px; stroke-width: 0.5px; opacity: 1;"/><path class="js-line" d="M324.57,356.26L208.3241422575635,455.4553106089544" style="vector-effect: none; fill: none; stroke: rgb(160, 160, 160); stroke-opacity: 1; stroke-dasharray: 3px, 3px; stroke-width: 0.5px; opacity: 1;"/><path class="js-line" d="M203.76,459.35L93.68987150946555,420.62144532848384" style="vector-effect: none; fill: none; stroke: rgb(160, 160, 160); stroke-opacity: 1; stroke-dasharray: 3px, 3px; stroke-width: 0.5px; opacity: 1;"/><path class="js-line" d="M590.93,755L618.6449880576988,629.6185786731337" style="vector-effect: none; fill: none; stroke: rgb(160, 160, 160); stroke-opacity: 1; stroke-dasharray: 3px, 3px; stroke-width: 0.5px; opacity: 1;"/><path class="js-line" d="M785.36,665.32L625.7591542198381,625.2220000566828" style="vector-effect: none; fill: none; stroke: rgb(160, 160, 160); stroke-opacity: 1; stroke-dasharray: 3px, 3px; stroke-width: 0.5px; opacity: 1;"/><path class="js-line" d="M619.94,623.76L544.3940957187303,504.15284640268305" style="vector-effect: none; fill: none; stroke: rgb(160, 160, 160); stroke-opacity: 1; stroke-dasharray: 3px, 3px; stroke-width: 0.5px; opacity: 1;"/><path class="js-line" d="M541.19,499.08L387.41238855672117,384.5734224393922" style="vector-effect: none; fill: none; stroke: rgb(160, 160, 160); stroke-opacity: 1; stroke-dasharray: 3px, 3px; stroke-width: 0.5px; opacity: 1;"/><path class="js-line" d="M657.3,45L580.333778956863,150.61104070093057" style="vector-effect: none; fill: none; stroke: rgb(160, 160, 160); stroke-opacity: 1; stroke-dasharray: 3px, 3px; stroke-width: 0.5px; opacity: 1;"/></g><g class="points"><path class="point" transform="translate(850,279.7)" d="M0,0Z" style="opacity: 1; stroke-width: 0px; fill: rgb(0, 0, 0); fill-opacity: 1;"/><path class="point" transform="translate(679.77,317.3)" d="M0.6470373743127744,2.9293928784378567L-0.6470373743127744,-2.9293928784378567M0,0L6.505823131188488,1.6353181298123078L5.211748382562939,-4.223467627063405Z" style="opacity: 1; stroke-width: 0px; fill: rgb(0, 0, 0); fill-opacity: 1;"/><path class="point" transform="translate(679.77,317.3)" d="M0,0Z" style="opacity: 1; stroke-width: 0px; fill: rgb(0, 0, 0); fill-opacity: 1;"/><path class="point" transform="translate(473.99,342.88)" d="M0.37007423990899335,2.977086672731545L-0.37007423990899335,-2.977086672731545M0,0L6.324247585372083,2.2369381929135583L5.584099105554097,-3.7172351525495317Z" style="opacity: 1; stroke-width: 0px; fill: rgb(0, 0, 0); fill-opacity: 1;"/><path class="point" transform="translate(50,89.44)" d="M0,0Z" style="opacity: 1; stroke-width: 0px; fill: rgb(0, 0, 0); fill-opacity: 1;"/><path class="point" transform="translate(172.35,176.17)" d="M1.7349232887390311,-2.4474560633831497L-1.7349232887390311,2.4474560633831497M0,0L-3.1599888380272683,-5.917302640861212L-6.6298354155053305,-1.0223905140949126Z" style="opacity: 1; stroke-width: 0px; fill: rgb(0, 0, 0); fill-opacity: 1;"/><path class="point" transform="translate(473.99,342.88)" d="M0,0Z" style="opacity: 1; stroke-width: 0px; fill: rgb(0, 0, 0); fill-opacity: 1;"/><path class="point" transform="translate(457.3,251.77)" d="M-2.9508971961422406,0.5405605773637806L2.9508971961422406,-0.5405605773637806M0,0L-1.8697760414146793,6.442354969648262L4.0320183508698015,5.3612338149207Z" style="opacity: 1; stroke-width: 0px; fill: rgb(0, 0, 0); fill-opacity: 1;"/><path class="point" transform="translate(330.29,181.94)" d="M0,0Z" style="opacity: 1; stroke-width: 0px; fill: rgb(0, 0, 0); fill-opacity: 1;"/><path class="point" transform="translate(457.3,251.77)" d="M1.4453510094652962,-2.628870567266036L-1.4453510094652962,2.628870567266036M0,0L-3.8123901250667758,-5.519572586196628L-6.7030921439973685,-0.26183145166455635Z" style="opacity: 1; stroke-width: 0px; fill: rgb(0, 0, 0); fill-opacity: 1;"/><path class="point" transform="translate(382.6,380.99)" d="M0,0Z" style="opacity: 1; stroke-width: 0px; fill: rgb(0, 0, 0); fill-opacity: 1;"/><path class="point" transform="translate(457.3,251.77)" d="M-2.5972507594587717,-1.501428816990947L2.5972507594587717,1.501428816990947M0,0L-5.6001083934406655,3.6930727019265963L-0.4056068745231225,6.695930335908491Z" style="opacity: 1; stroke-width: 0px; fill: rgb(0, 0, 0); fill-opacity: 1;"/><path class="point" transform="translate(324.57,356.26)" d="M0,0Z" style="opacity: 1; stroke-width: 0px; fill: rgb(0, 0, 0); fill-opacity: 1;"/><path class="point" transform="translate(457.3,251.77)" d="M-1.8556834846888595,-2.3572099619365714L1.8556834846888595,2.3572099619365714M0,0L-6.5701034085620025,1.3541570074411475L-2.858736439184283,6.06857693131429Z" style="opacity: 1; stroke-width: 0px; fill: rgb(0, 0, 0); fill-opacity: 1;"/><path class="point" transform="translate(457.3,251.77)" d="M0,0Z" style="opacity: 1; stroke-width: 0px; fill: rgb(0, 0, 0); fill-opacity: 1;"/><path class="point" transform="translate(576.8,155.46)" d="M-1.8825351723715613,-2.335821338369862L1.8825351723715613,2.335821338369862M0,0L-6.554177849111285,1.4292490063732606L-2.789107504368163,6.100891683112985Z" style="opacity: 1; stroke-width: 0px; fill: rgb(0, 0, 0); fill-opacity: 1;"/><path class="point" transform="translate(473.99,342.88)" d="M0,0Z" style="opacity: 1; stroke-width: 0px; fill: rgb(0, 0, 0); fill-opacity: 1;"/><path class="point" transform="translate(496.65,271.16)" d="M-2.8606153465368,-0.9038140512064117L2.8606153465368,0.9038140512064117M0,0L-4.668243448949623,4.817416641867188L1.0529872441239765,6.625044744280011Z" style="opacity: 1; stroke-width: 0px; fill: rgb(0, 0, 0); fill-opacity: 1;"/><path class="point" transform="translate(330.29,181.94)" d="M0,0Z" style="opacity: 1; stroke-width: 0px; fill: rgb(0, 0, 0); fill-opacity: 1;"/><path class="point" transform="translate(496.65,271.16)" d="M1.4178812640751774,-2.643787571077634L-1.4178812640751774,2.643787571077634M0,0L-3.869693878080091,-5.479550099227989L-6.705456406230446,-0.19197495707272072Z" style="opacity: 1; stroke-width: 0px; fill: rgb(0, 0, 0); fill-opacity: 1;"/><path class="point" transform="translate(382.6,380.99)" d="M0,0Z" style="opacity: 1; stroke-width: 0px; fill: rgb(0, 0, 0); fill-opacity: 1;"/><path class="point" transform="translate(496.65,271.16)" d="M-2.0809651128155995,-2.160922071534362L2.0809651128155995,2.160922071534362M0,0L-6.402809255884324,2.0010081540968367L-2.240879030253125,6.322852297165561Z" style="opacity: 1; stroke-width: 0px; fill: rgb(0, 0, 0); fill-opacity: 1;"/><path class="point" transform="translate(324.57,356.26)" d="M0,0Z" style="opacity: 1; stroke-width: 0px; fill: rgb(0, 0, 0); fill-opacity: 1;"/><path class="point" transform="translate(496.65,271.16)" d="M-1.3298762516374718,-2.6891316731113535L1.3298762516374718,2.6891316731113535M0,0L-6.708139597860178,-0.02937916983640987L-4.048387094585236,5.3488841763862975Z" style="opacity: 1; stroke-width: 0px; fill: rgb(0, 0, 0); fill-opacity: 1;"/><path class="point" transform="translate(496.65,271.16)" d="M0,0Z" style="opacity: 1; stroke-width: 0px; fill: rgb(0, 0, 0); fill-opacity: 1;"/><path class="point" transform="translate(576.8,155.46)" d="M-2.4660777124315234,-1.7083502908503585L2.4660777124315234,1.7083502908503585M0,0L-5.88277829413224,3.2238051340126885L-0.9506228692691936,6.640505715713405Z" style="opacity: 1; stroke-width: 0px; fill: rgb(0, 0, 0); fill-opacity: 1;"/><path class="point" transform="translate(473.99,342.88)" d="M0,0Z" style="opacity: 1; stroke-width: 0px; fill: rgb(0, 0, 0); fill-opacity: 1;"/><path class="point" transform="translate(340.14,260.99)" d="M-1.565641317246804,2.559055932512944L1.565641317246804,-2.559055932512944M0,0L3.552470547779084,5.6903385670065525L6.683753182272692,0.5722267019806639Z" style="opacity: 1; stroke-width: 0px; fill: rgb(0, 0, 0); fill-opacity: 1;"/><path class="point" transform="translate(172.35,176.17)" d="M0,0Z" style="opacity: 1; stroke-width: 0px; fill: rgb(0, 0, 0); fill-opacity: 1;"/><path class="point" transform="translate(340.14,260.99)" d="M1.353435652672347,-2.677351664252453L-1.353435652672347,2.677351664252453M0,0L-4.001267675832558,-5.384222969597147L-6.708138981177253,-0.029519641092241145Z" style="opacity: 1; stroke-width: 0px; fill: rgb(0, 0, 0); fill-opacity: 1;"/><path class="point" transform="translate(382.6,380.99)" d="M0,0Z" style="opacity: 1; stroke-width: 0px; fill: rgb(0, 0, 0); fill-opacity: 1;"/><path class="point" transform="translate(340.14,260.99)" d="M-2.8281782210997672,1.000703727232469L2.8281782210997672,-1.000703727232469M0,0L-0.8267707666348292,6.657060169432004L4.829585675564705,4.655652714967065Z" style="opacity: 1; stroke-width: 0px; fill: rgb(0, 0, 0); fill-opacity: 1;"/><path class="point" transform="translate(324.57,356.26)" d="M0,0Z" style="opacity: 1; stroke-width: 0px; fill: rgb(0, 0, 0); fill-opacity: 1;"/><path class="point" transform="translate(340.14,260.99)" d="M-2.9607209427372667,-0.48387136641565187L2.9607209427372667,0.48387136641565187M0,0L-3.9284636755685707,5.437570519058881L1.992978209905963,6.405313251890186Z" style="opacity: 1; stroke-width: 0px; fill: rgb(0, 0, 0); fill-opacity: 1;"/><path class="point" transform="translate(340.14,260.99)" d="M0,0Z" style="opacity: 1; stroke-width: 0px; fill: rgb(0, 0, 0); fill-opacity: 1;"/><path class="point" transform="translate(330.29,181.94)" d="M-2.9769782485916427,0.3709454237650551L2.9769782485916427,-0.3709454237650551M0,0L-2.2350874010615325,6.32490192094834L3.718869096121753,5.5830110734182306Z" style="opacity: 1; stroke-width: 0px; fill: rgb(0, 0, 0); fill-opacity: 1;"/><path class="point" transform="translate(473.99,342.88)" d="M0,0Z" style="opacity: 1; stroke-width: 0px; fill: rgb(0, 0, 0); fill-opacity: 1;"/><path class="point" transform="translate(286.77,274.48)" d="M-1.0294818252529474,2.8178302240329987L1.0294818252529474,-2.8178302240329987M0,0L4.60617862281305,4.876793874538894L6.665142273318945,-0.7588665735271038Z" style="opacity: 1; stroke-width: 0px; fill: rgb(0, 0, 0); fill-opacity: 1;"/><path class="point" transform="translate(172.35,176.17)" d="M0,0Z" style="opacity: 1; stroke-width: 0px; fill: rgb(0, 0, 0); fill-opacity: 1;"/><path class="point" transform="translate(286.77,274.48)" d="M1.9550750167199218,-2.2754519724656017L-1.9550750167199218,2.2754519724656017M0,0L-2.5958289282112816,-6.185602005905445L-6.505978961651126,-1.6346980609742419Z" style="opacity: 1; stroke-width: 0px; fill: rgb(0, 0, 0); fill-opacity: 1;"/><path class="point" transform="translate(382.6,380.99)" d="M0,0Z" style="opacity: 1; stroke-width: 0px; fill: rgb(0, 0, 0); fill-opacity: 1;"/><path class="point" transform="translate(286.77,274.48)" d="M-2.230184347707175,2.00655868970781L2.230184347707175,-2.00655868970781M0,0L1.782933031708445,6.46692738512216L6.243301727122795,2.45381000570654Z" style="opacity: 1; stroke-width: 0px; fill: rgb(0, 0, 0); fill-opacity: 1;"/><path class="point" transform="translate(324.57,356.26)" d="M0,0Z" style="opacity: 1; stroke-width: 0px; fill: rgb(0, 0, 0); fill-opacity: 1;"/><path class="point" transform="translate(286.77,274.48)" d="M-2.7231760178538695,1.2586947111136766L2.7231760178538695,-1.2586947111136766M0,0L-0.20578659562651636,6.705046746821416L5.240565440081223,4.1876573245940625Z" style="opacity: 1; stroke-width: 0px; fill: rgb(0, 0, 0); fill-opacity: 1;"/><path class="point" transform="translate(286.77,274.48)" d="M0,0Z" style="opacity: 1; stroke-width: 0px; fill: rgb(0, 0, 0); fill-opacity: 1;"/><path class="point" transform="translate(330.29,181.94)" d="M-2.714775146939107,-1.276712928407067L2.714775146939107,1.276712928407067M0,0L-5.268201003753241,4.152837365471147L0.1613492901249729,6.706263222285282Z" style="opacity: 1; stroke-width: 0px; fill: rgb(0, 0, 0); fill-opacity: 1;"/><path class="point" transform="translate(88.03,418.63)" d="M0,0Z" style="opacity: 1; stroke-width: 0px; fill: rgb(0, 0, 0); fill-opacity: 1;"/><path class="point" transform="translate(190.33,325.47)" d="M-2.0199170463066727,-2.2180926775136625L2.0199170463066727,2.2180926775136625M0,0L-6.456102401333998,1.821741415099683L-2.4162683087206522,6.257926770127008Z" style="opacity: 1; stroke-width: 0px; fill: rgb(0, 0, 0); fill-opacity: 1;"/><path class="point" transform="translate(382.6,380.99)" d="M0,0Z" style="opacity: 1; stroke-width: 0px; fill: rgb(0, 0, 0); fill-opacity: 1;"/><path class="point" transform="translate(190.33,325.47)" d="M-0.8322776672694421,2.8822411218641193L0.8322776672694421,-2.8822411218641193M0,0L4.932204576458797,4.546796456403003L6.59675991099768,-1.2176857873252351Z" style="opacity: 1; stroke-width: 0px; fill: rgb(0, 0, 0); fill-opacity: 1;"/><path class="point" transform="translate(324.57,356.26)" d="M0,0Z" style="opacity: 1; stroke-width: 0px; fill: rgb(0, 0, 0); fill-opacity: 1;"/><path class="point" transform="translate(190.33,325.47)" d="M-0.6706803379356199,2.924070430804731L0.6706803379356199,-2.924070430804731M0,0L5.177460523673842,4.265431106675971L6.518821199545082,-1.5827097549334912Z" style="opacity: 1; stroke-width: 0px; fill: rgb(0, 0, 0); fill-opacity: 1;"/><path class="point" transform="translate(190.33,325.47)" d="M0,0Z" style="opacity: 1; stroke-width: 0px; fill: rgb(0, 0, 0); fill-opacity: 1;"/><path class="point" transform="translate(330.29,181.94)" d="M-2.1478639064009872,-2.0944404120384736L2.1478639064009872,2.0944404120384736M0,0L-6.3367447304779345,2.201287400763501L-2.04101691767596,6.390168224840448Z" style="opacity: 1; stroke-width: 0px; fill: rgb(0, 0, 0); fill-opacity: 1;"/><path class="point" transform="translate(473.99,342.88)" d="M0,0Z" style="opacity: 1; stroke-width: 0px; fill: rgb(0, 0, 0); fill-opacity: 1;"/><path class="point" transform="translate(435.15,462.68)" d="M2.853766685056143,0.9252111690115246L-2.853766685056143,-0.9252111690115246M0,0L4.704189023079192,-4.782322201100762L-1.003344347033094,-6.632744539123811Z" style="opacity: 1; stroke-width: 0px; fill: rgb(0, 0, 0); fill-opacity: 1;"/><path class="point" transform="translate(382.6,380.99)" d="M0,0Z" style="opacity: 1; stroke-width: 0px; fill: rgb(0, 0, 0); fill-opacity: 1;"/><path class="point" transform="translate(435.15,462.68)" d="M2.523043593825464,-1.6230375915721384L-2.523043593825464,1.6230375915721384M0,0L-0.7230315893188131,-6.669124779223067L-5.769118776969741,-3.4230495960787892Z" style="opacity: 1; stroke-width: 0px; fill: rgb(0, 0, 0); fill-opacity: 1;"/><path class="point" transform="translate(324.57,356.26)" d="M0,0Z" style="opacity: 1; stroke-width: 0px; fill: rgb(0, 0, 0); fill-opacity: 1;"/><path class="point" transform="translate(435.15,462.68)" d="M2.08027133383686,-2.1615899651915047L-2.08027133383686,2.1615899651915047M0,0L-2.2429085965461493,-6.322132632865225L-6.4034512642198695,-1.9989527024822156Z" style="opacity: 1; stroke-width: 0px; fill: rgb(0, 0, 0); fill-opacity: 1;"/><path class="point" transform="translate(435.15,462.68)" d="M0,0Z" style="opacity: 1; stroke-width: 0px; fill: rgb(0, 0, 0); fill-opacity: 1;"/><path class="point" transform="translate(265.24,565.37)" d="M1.5517458884112783,2.5675055399742948L-1.5517458884112783,-2.5675055399742948M0,0L6.686756968359868,-0.5359862368482617L3.5832651915373113,-5.670997316796852Z" style="opacity: 1; stroke-width: 0px; fill: rgb(0, 0, 0); fill-opacity: 1;"/><path class="point" transform="translate(382.6,380.99)" d="M0,0Z" style="opacity: 1; stroke-width: 0px; fill: rgb(0, 0, 0); fill-opacity: 1;"/><path class="point" transform="translate(339.5,498.52)" d="M2.8165850526483296,1.0328836532727228L-2.8165850526483296,-1.0328836532727228M0,0L4.882352359193775,-4.600286452023936L-0.750817746102884,-6.666053758569382Z" style="opacity: 1; stroke-width: 0px; fill: rgb(0, 0, 0); fill-opacity: 1;"/><path class="point" transform="translate(324.57,356.26)" d="M0,0Z" style="opacity: 1; stroke-width: 0px; fill: rgb(0, 0, 0); fill-opacity: 1;"/><path class="point" transform="translate(339.5,498.52)" d="M2.983613896745532,-0.31312635651912457L-2.983613896745532,0.31312635651912457M0,0L2.357361183707283,-6.280354150010189L-3.609866609783781,-5.654101436971939Z" style="opacity: 1; stroke-width: 0px; fill: rgb(0, 0, 0); fill-opacity: 1;"/><path class="point" transform="translate(339.5,498.52)" d="M0,0Z" style="opacity: 1; stroke-width: 0px; fill: rgb(0, 0, 0); fill-opacity: 1;"/><path class="point" transform="translate(265.24,565.37)" d="M2.007159593474712,2.2296435514051183L-2.007159593474712,-2.2296435514051183M0,0L6.466446696284949,-1.784675635544306L2.4521275093355244,-6.243962738354543Z" style="opacity: 1; stroke-width: 0px; fill: rgb(0, 0, 0); fill-opacity: 1;"/><path class="point" transform="translate(473.99,342.88)" d="M0,0Z" style="opacity: 1; stroke-width: 0px; fill: rgb(0, 0, 0); fill-opacity: 1;"/><path class="point" transform="translate(289.78,441.88)" d="M1.4201860414771532,2.6425502090960267L-1.4201860414771532,-2.6425502090960267M0,0L6.705286459669207,-0.19782187385827976L3.8649143767149,-5.482922292050333Z" style="opacity: 1; stroke-width: 0px; fill: rgb(0, 0, 0); fill-opacity: 1;"/><path class="point" transform="translate(265.24,565.37)" d="M0,0Z" style="opacity: 1; stroke-width: 0px; fill: rgb(0, 0, 0); fill-opacity: 1;"/><path class="point" transform="translate(289.78,441.88)" d="M-2.9424637906624964,-0.5847280056916146L2.9424637906624964,0.5847280056916146M0,0L-4.111919802045726,5.300199575633378L1.7730077792792671,6.469655587016607Z" style="opacity: 1; stroke-width: 0px; fill: rgb(0, 0, 0); fill-opacity: 1;"/><path class="point" transform="translate(382.6,380.99)" d="M0,0Z" style="opacity: 1; stroke-width: 0px; fill: rgb(0, 0, 0); fill-opacity: 1;"/><path class="point" transform="translate(289.78,441.88)" d="M1.645532477442567,2.508430358945954L-1.645532477442567,-2.508430358945954M0,0L6.6623931953344755,-0.7826345959391801L3.371328240449341,-5.799495313831088Z" style="opacity: 1; stroke-width: 0px; fill: rgb(0, 0, 0); fill-opacity: 1;"/><path class="point" transform="translate(324.57,356.26)" d="M0,0Z" style="opacity: 1; stroke-width: 0px; fill: rgb(0, 0, 0); fill-opacity: 1;"/><path class="point" transform="translate(289.78,441.88)" d="M2.779321905126112,1.1293226942225845L-2.779321905126112,-1.1293226942225845M0,0L5.037967293571281,-4.42932111602964L-0.5206765166809433,-6.687966504474809Z" style="opacity: 1; stroke-width: 0px; fill: rgb(0, 0, 0); fill-opacity: 1;"/><path class="point" transform="translate(289.78,441.88)" d="M0,0Z" style="opacity: 1; stroke-width: 0px; fill: rgb(0, 0, 0); fill-opacity: 1;"/><path class="point" transform="translate(88.03,418.63)" d="M-0.3434518003151026,2.9802752995084725L0.3434518003151026,-2.9802752995084725M0,0L5.617098798701843,3.6671789001386776L6.304002399332047,-2.2933716988782673Z" style="opacity: 1; stroke-width: 0px; fill: rgb(0, 0, 0); fill-opacity: 1;"/><path class="point" transform="translate(265.24,565.37)" d="M0,0Z" style="opacity: 1; stroke-width: 0px; fill: rgb(0, 0, 0); fill-opacity: 1;"/><path class="point" transform="translate(203.76,459.35)" d="M-2.595216794453073,1.5049417895017458L2.595216794453073,-1.5049417895017458M0,0L0.41466678455041883,6.695375378407892L5.6051003734565645,3.6854917994044Z" style="opacity: 1; stroke-width: 0px; fill: rgb(0, 0, 0); fill-opacity: 1;"/><path class="point" transform="translate(382.6,380.99)" d="M0,0Z" style="opacity: 1; stroke-width: 0px; fill: rgb(0, 0, 0); fill-opacity: 1;"/><path class="point" transform="translate(203.76,459.35)" d="M1.2039716234724995,2.7478086414219227L-1.2039716234724995,-2.7478086414219227M0,0L6.699588906316345,0.33986539447692365L4.291645659371346,-5.155751888366922Z" style="opacity: 1; stroke-width: 0px; fill: rgb(0, 0, 0); fill-opacity: 1;"/><path class="point" transform="translate(324.57,356.26)" d="M0,0Z" style="opacity: 1; stroke-width: 0px; fill: rgb(0, 0, 0); fill-opacity: 1;"/><path class="point" transform="translate(203.76,459.35)" d="M1.9473446955228066,2.282071128781745L-1.9473446955228066,-2.282071128781745M0,0L6.511486953086297,-1.6126182622638683L2.6167975620406834,-6.176760519827358Z" style="opacity: 1; stroke-width: 0px; fill: rgb(0, 0, 0); fill-opacity: 1;"/><path class="point" transform="translate(203.76,459.35)" d="M0,0Z" style="opacity: 1; stroke-width: 0px; fill: rgb(0, 0, 0); fill-opacity: 1;"/><path class="point" transform="translate(88.03,418.63)" d="M-0.9957226642419303,2.8299357547327735L0.9957226642419303,-2.8299357547327735M0,0L4.664148845223616,4.821381083216634L6.6555941737074775,-0.8384904262489128Z" style="opacity: 1; stroke-width: 0px; fill: rgb(0, 0, 0); fill-opacity: 1;"/><path class="point" transform="translate(590.93,755)" d="M0,0Z" style="opacity: 1; stroke-width: 0px; fill: rgb(0, 0, 0); fill-opacity: 1;"/><path class="point" transform="translate(619.94,623.76)" d="M-2.9292893365668604,-0.6475059711506015L2.9292893365668604,0.6475059711506015M0,0L-4.224301278868063,5.211072701983119L1.6342773942656574,6.506084644284322Z" style="opacity: 1; stroke-width: 0px; fill: rgb(0, 0, 0); fill-opacity: 1;"/><path class="point" transform="translate(785.36,665.32)" d="M0,0Z" style="opacity: 1; stroke-width: 0px; fill: rgb(0, 0, 0); fill-opacity: 1;"/><path class="point" transform="translate(619.94,623.76)" d="M-0.7310000283414084,2.9095771099190446L0.7310000283414084,-2.9095771099190446M0,0L5.088154191496681,4.3715771666018615L6.550154248179497,-1.4475770532362278Z" style="opacity: 1; stroke-width: 0px; fill: rgb(0, 0, 0); fill-opacity: 1;"/><path class="point" transform="translate(619.94,623.76)" d="M0,0Z" style="opacity: 1; stroke-width: 0px; fill: rgb(0, 0, 0); fill-opacity: 1;"/><path class="point" transform="translate(541.19,499.08)" d="M-2.5364232013415244,1.6020478593651353L2.5364232013415244,-1.6020478593651353M0,0L0.6676725173887461,6.674894262048184L5.7405189200717945,3.4707985433179136Z" style="opacity: 1; stroke-width: 0px; fill: rgb(0, 0, 0); fill-opacity: 1;"/><path class="point" transform="translate(541.19,499.08)" d="M0,0Z" style="opacity: 1; stroke-width: 0px; fill: rgb(0, 0, 0); fill-opacity: 1;"/><path class="point" transform="translate(382.6,380.99)" d="M-1.7917112196960763,2.406194278360581L1.7917112196960763,-2.406194278360581M0,0L3.0206773370250857,5.9896167177527335L6.604099776417238,1.1772281610315716Z" style="opacity: 1; stroke-width: 0px; fill: rgb(0, 0, 0); fill-opacity: 1;"/><path class="point" transform="translate(657.3,45)" d="M0,0Z" style="opacity: 1; stroke-width: 0px; fill: rgb(0, 0, 0); fill-opacity: 1;"/><path class="point" transform="translate(576.8,155.46)" d="M2.4244796495347223,1.7668894784315152L-2.4244796495347223,-1.7668894784315152M0,0L5.958258606397752,-3.0820698206379293L1.1092993073283082,-6.615848777500959Z" style="opacity: 1; stroke-width: 0px; fill: rgb(0, 0, 0); fill-opacity: 1;"/></g><g class="text"/></g><g class="trace scatter tracecf3428" style="stroke-miterlimit: 2; opacity: 1;"><g class="fills"/><g class="errorbars"/><g class="lines"/><g class="points"><path class="point" transform="translate(679.77,317.3)" d="M4,4H-4V-4H4Z" style="opacity: 1; stroke-width: 0.5px; fill: rgb(0, 0, 255); fill-opacity: 1; stroke: rgb(50, 50, 50); stroke-opacity: 1;"/></g><g class="text"/></g><g class="trace scatter trace62cc88" style="stroke-miterlimit: 2; opacity: 1;"><g class="fills"/><g class="errorbars"/><g class="lines"/><g class="points"><path class="point" transform="translate(50,89.44)" d="M4,4H-4V-4H4Z" style="opacity: 1; stroke-width: 0.5px; fill: rgb(255, 0, 255); fill-opacity: 1; stroke: rgb(50, 50, 50); stroke-opacity: 1;"/><path class="point" transform="translate(457.3,251.77)" d="M4,4H-4V-4H4Z" style="opacity: 1; stroke-width: 0.5px; fill: rgb(255, 0, 255); fill-opacity: 1; stroke: rgb(50, 50, 50); stroke-opacity: 1;"/><path class="point" transform="translate(496.65,271.16)" d="M4,4H-4V-4H4Z" style="opacity: 1; stroke-width: 0.5px; fill: rgb(255, 0, 255); fill-opacity: 1; stroke: rgb(50, 50, 50); stroke-opacity: 1;"/><path class="point" transform="translate(340.14,260.99)" d="M4,4H-4V-4H4Z" style="opacity: 1; stroke-width: 0.5px; fill: rgb(255, 0, 255); fill-opacity: 1; stroke: rgb(50, 50, 50); stroke-opacity: 1;"/><path class="point" transform="translate(286.77,274.48)" d="M4,4H-4V-4H4Z" style="opacity: 1; stroke-width: 0.5px; fill: rgb(255, 0, 255); fill-opacity: 1; stroke: rgb(50, 50, 50); stroke-opacity: 1;"/><path class="point" transform="translate(190.33,325.47)" d="M4,4H-4V-4H4Z" style="opacity: 1; stroke-width: 0.5px; fill: rgb(255, 0, 255); fill-opacity: 1; stroke: rgb(50, 50, 50); stroke-opacity: 1;"/><path class="point" transform="translate(435.15,462.68)" d="M4,4H-4V-4H4Z" style="opacity: 1; stroke-width: 0.5px; fill: rgb(255, 0, 255); fill-opacity: 1; stroke: rgb(50, 50, 50); stroke-opacity: 1;"/><path class="point" transform="translate(339.5,498.52)" d="M4,4H-4V-4H4Z" style="opacity: 1; stroke-width: 0.5px; fill: rgb(255, 0, 255); fill-opacity: 1; stroke: rgb(50, 50, 50); stroke-opacity: 1;"/><path class="point" transform="translate(289.78,441.88)" d="M4,4H-4V-4H4Z" style="opacity: 1; stroke-width: 0.5px; fill: rgb(255, 0, 255); fill-opacity: 1; stroke: rgb(50, 50, 50); stroke-opacity: 1;"/><path class="point" transform="translate(203.76,459.35)" d="M4,4H-4V-4H4Z" style="opacity: 1; stroke-width: 0.5px; fill: rgb(255, 0, 255); fill-opacity: 1; stroke: rgb(50, 50, 50); stroke-opacity: 1;"/></g><g class="text"/></g><g class="trace scatter trace86e75a" style="stroke-miterlimit: 2; opacity: 1;"><g class="fills"/><g class="errorbars"/><g class="lines"/><g class="points"><path class="point" transform="translate(850,279.7)" d="M4,0A4,4 0 1,1 0,-4A4,4 0 0,1 4,0Z" style="opacity: 1; stroke-width: 0.5px; fill: rgb(106, 168, 79); fill-opacity: 1; stroke: rgb(50, 50, 50); stroke-opacity: 1;"/><path class="point" transform="translate(473.99,342.88)" d="M4,0A4,4 0 1,1 0,-4A4,4 0 0,1 4,0Z" style="opacity: 1; stroke-width: 0.5px; fill: rgb(106, 168, 79); fill-opacity: 1; stroke: rgb(50, 50, 50); stroke-opacity: 1;"/><path class="point" transform="translate(382.6,380.99)" d="M4,0A4,4 0 1,1 0,-4A4,4 0 0,1 4,0Z" style="opacity: 1; stroke-width: 0.5px; fill: rgb(106, 168, 79); fill-opacity: 1; stroke: rgb(50, 50, 50); stroke-opacity: 1;"/><path class="point" transform="translate(324.57,356.26)" d="M4,0A4,4 0 1,1 0,-4A4,4 0 0,1 4,0Z" style="opacity: 1; stroke-width: 0.5px; fill: rgb(106, 168, 79); fill-opacity: 1; stroke: rgb(50, 50, 50); stroke-opacity: 1;"/><path class="point" transform="translate(619.94,623.76)" d="M4,0A4,4 0 1,1 0,-4A4,4 0 0,1 4,0Z" style="opacity: 1; stroke-width: 0.5px; fill: rgb(106, 168, 79); fill-opacity: 1; stroke: rgb(50, 50, 50); stroke-opacity: 1;"/></g><g class="text"/></g><g class="trace scatter traceaf9916" style="stroke-miterlimit: 2; opacity: 1;"><g class="fills"/><g class="errorbars"/><g class="lines"/><g class="points"><path class="point" transform="translate(172.35,176.17)" d="M4,0A4,4 0 1,1 0,-4A4,4 0 0,1 4,0Z" style="opacity: 1; stroke-width: 0.5px; fill: rgb(153, 153, 204); fill-opacity: 1; stroke: rgb(50, 50, 50); stroke-opacity: 1;"/><path class="point" transform="translate(330.29,181.94)" d="M4,0A4,4 0 1,1 0,-4A4,4 0 0,1 4,0Z" style="opacity: 1; stroke-width: 0.5px; fill: rgb(153, 153, 204); fill-opacity: 1; stroke: rgb(50, 50, 50); stroke-opacity: 1;"/><path class="point" transform="translate(88.03,418.63)" d="M4,0A4,4 0 1,1 0,-4A4,4 0 0,1 4,0Z" style="opacity: 1; stroke-width: 0.5px; fill: rgb(153, 153, 204); fill-opacity: 1; stroke: rgb(50, 50, 50); stroke-opacity: 1;"/><path class="point" transform="translate(265.24,565.37)" d="M4,0A4,4 0 1,1 0,-4A4,4 0 0,1 4,0Z" style="opacity: 1; stroke-width: 0.5px; fill: rgb(153, 153, 204); fill-opacity: 1; stroke: rgb(50, 50, 50); stroke-opacity: 1;"/></g><g class="text"/></g><g class="trace scatter trace805f51" style="stroke-miterlimit: 2; opacity: 1;"><g class="fills"/><g class="errorbars"/><g class="lines"/><g class="points"><path class="point" transform="translate(576.8,155.46)" d="M4,0A4,4 0 1,1 0,-4A4,4 0 0,1 4,0Z" style="opacity: 1; stroke-width: 0.5px; fill: rgb(237, 125, 49); fill-opacity: 1; stroke: rgb(50, 50, 50); stroke-opacity: 1;"/></g><g class="text"/></g><g class="trace scatter traced92799" style="stroke-miterlimit: 2; opacity: 1;"><g class="fills"/><g class="errorbars"/><g class="lines"/><g class="points"><path class="point" transform="translate(590.93,755)" d="M4,4H-4V-4H4Z" style="opacity: 1; stroke-width: 0.5px; fill: rgb(0, 0, 0); fill-opacity: 1; stroke: rgb(50, 50, 50); stroke-opacity: 1;"/><path class="point" transform="translate(785.36,665.32)" d="M4,4H-4V-4H4Z" style="opacity: 1; stroke-width: 0.5px; fill: rgb(0, 0, 0); fill-opacity: 1; stroke: rgb(50, 50, 50); stroke-opacity: 1;"/><path class="point" transform="translate(541.19,499.08)" d="M4,4H-4V-4H4Z" style="opacity: 1; stroke-width: 0.5px; fill: rgb(0, 0, 0); fill-opacity: 1; stroke: rgb(50, 50, 50); stroke-opacity: 1;"/><path class="point" transform="translate(657.3,45)" d="M4,4H-4V-4H4Z" style="opacity: 1; stroke-width: 0.5px; fill: rgb(0, 0, 0); fill-opacity: 1; stroke: rgb(50, 50, 50); stroke-opacity: 1;"/></g><g class="text"/></g></g></g></g><path class="xlines-above crisp" d="M0,0" style="fill: none;"/><path class="ylines-above crisp" d="M0,0" style="fill: none;"/><g class="overlines-above"/><g class="xaxislayer-above"/><g class="yaxislayer-above"/><g class="overaxes-above"/></g></g><g class="polarlayer"/><g class="smithlayer"/><g class="ternarylayer"/><g class="geolayer"/><g class="funnelarealayer"/><g class="pielayer"/><g class="iciclelayer"/><g class="treemaplayer"/><g class="sunburstlayer"/><g class="glimages"/><defs id="topdefs-22ceb1"><g class="clips"/><clipPath id="legend22ceb1"><rect width="82" height="203" x="0" y="0"/></clipPath></defs><g class="layer-above"><g class="imagelayer"/><g class="shapelayer"/></g><g class="infolayer"><g class="legend" pointer-events="all" transform="translate(918,298.5)"><rect class="bg" shape-rendering="crispEdges" width="82" height="203" x="0" y="0" style="stroke: rgb(68, 68, 68); stroke-opacity: 1; fill: rgb(255, 255, 255); fill-opacity: 1; stroke-width: 0px;"/><g class="scrollbox" transform="" clip-path="url(#legend22ceb1)"><g class="groups" transform=""><g class="traces" transform="translate(0,14.5)" style="opacity: 1;"><text class="legendtext" text-anchor="start" x="40" y="4.680000000000001" style="font-family: 'Open Sans', verdana, arial, sans-serif; font-size: 12px; fill: rgb(42, 63, 95); fill-opacity: 1; white-space: pre;">edges</text><g class="layers" style="opacity: 1;"><g class="legendfill"/><g class="legendlines"><path class="js-line" d="M5,0h30" style="fill: none; stroke: rgb(160, 160, 160); stroke-opacity: 1; stroke-dasharray: 3px, 3px; stroke-width: 0.5px;"/></g><g class="legendsymbols"><g class="legendpoints"><path class="scatterpts" transform="translate(20,0)" d="M-1.8369701987210297e-16,-3L1.8369701987210297e-16,3M0,0L-6,-2.9999999999999996L-6,3.0000000000000004Z" style="opacity: 1; stroke-width: 0px; fill: rgb(0, 0, 0); fill-opacity: 1;"/></g></g></g><rect class="legendtoggle" x="0" y="-9.5" width="76.25" height="19" style="fill: rgb(0, 0, 0); fill-opacity: 0;"/></g></g><g class="groups" transform="translate(0,10)"><g class="traces" transform="translate(0,33.5)" style="opacity: 1;"><text class="legendtext" text-anchor="start" x="40" y="4.680000000000001" style="font-family: 'Open Sans', verdana, arial, sans-serif; font-size: 12px; fill: rgb(42, 63, 95); fill-opacity: 1; white-space: pre;">x2x</text><g class="layers" style="opacity: 1;"><g class="legendfill"/><g class="legendlines"/><g class="legendsymbols"><g class="legendpoints"><path class="scatterpts" transform="translate(20,0)" d="M4,4H-4V-4H4Z" style="opacity: 1; stroke-width: 0.5px; fill: rgb(0, 0, 255); fill-opacity: 1; stroke: rgb(50, 50, 50); stroke-opacity: 1;"/></g></g></g><rect class="legendtoggle" x="0" y="-9.5" width="76.25" height="19" style="fill: rgb(0, 0, 0); fill-opacity: 0;"/></g></g><g class="groups" transform="translate(0,20)"><g class="traces" transform="translate(0,52.5)" style="opacity: 1;"><text class="legendtext" text-anchor="start" x="40" y="4.680000000000001" style="font-family: 'Open Sans', verdana, arial, sans-serif; font-size: 12px; fill: rgb(42, 63, 95); fill-opacity: 1; white-space: pre;">ind</text><g class="layers" style="opacity: 1;"><g class="legendfill"/><g class="legendlines"/><g class="legendsymbols"><g class="legendpoints"><path class="scatterpts" transform="translate(20,0)" d="M4,4H-4V-4H4Z" style="opacity: 1; stroke-width: 0.5px; fill: rgb(255, 0, 255); fill-opacity: 1; stroke: rgb(50, 50, 50); stroke-opacity: 1;"/></g></g></g><rect class="legendtoggle" x="0" y="-9.5" width="76.25" height="19" style="fill: rgb(0, 0, 0); fill-opacity: 0;"/></g></g><g class="groups" transform="translate(0,30)"><g class="traces" transform="translate(0,71.5)" style="opacity: 1;"><text class="legendtext" text-anchor="start" x="40" y="4.680000000000001" style="font-family: 'Open Sans', verdana, arial, sans-serif; font-size: 12px; fill: rgb(42, 63, 95); fill-opacity: 1; white-space: pre;">sec</text><g class="layers" style="opacity: 1;"><g class="legendfill"/><g class="legendlines"/><g class="legendsymbols"><g class="legendpoints"><path class="scatterpts" transform="translate(20,0)" d="M4,0A4,4 0 1,1 0,-4A4,4 0 0,1 4,0Z" style="opacity: 1; stroke-width: 0.5px; fill: rgb(106, 168, 79); fill-opacity: 1; stroke: rgb(50, 50, 50); stroke-opacity: 1;"/></g></g></g><rect class="legendtoggle" x="0" y="-9.5" width="76.25" height="19" style="fill: rgb(0, 0, 0); fill-opacity: 0;"/></g></g><g class="groups" transform="translate(0,40)"><g class="traces" transform="translate(0,90.5)" style="opacity: 1;"><text class="legendtext" text-anchor="start" x="40" y="4.680000000000001" style="font-family: 'Open Sans', verdana, arial, sans-serif; font-size: 12px; fill: rgb(42, 63, 95); fill-opacity: 1; white-space: pre;">iip</text><g class="layers" style="opacity: 1;"><g class="legendfill"/><g class="legendlines"/><g class="legendsymbols"><g class="legendpoints"><path class="scatterpts" transform="translate(20,0)" d="M4,0A4,4 0 1,1 0,-4A4,4 0 0,1 4,0Z" style="opacity: 1; stroke-width: 0.5px; fill: rgb(153, 153, 204); fill-opacity: 1; stroke: rgb(50, 50, 50); stroke-opacity: 1;"/></g></g></g><rect class="legendtoggle" x="0" y="-9.5" width="76.25" height="19" style="fill: rgb(0, 0, 0); fill-opacity: 0;"/></g></g><g class="groups" transform="translate(0,50)"><g class="traces" transform="translate(0,109.5)" style="opacity: 1;"><text class="legendtext" text-anchor="start" x="40" y="4.680000000000001" style="font-family: 'Open Sans', verdana, arial, sans-serif; font-size: 12px; fill: rgb(42, 63, 95); fill-opacity: 1; white-space: pre;">exo</text><g class="layers" style="opacity: 1;"><g class="legendfill"/><g class="legendlines"/><g class="legendsymbols"><g class="legendpoints"><path class="scatterpts" transform="translate(20,0)" d="M4,0A4,4 0 1,1 0,-4A4,4 0 0,1 4,0Z" style="opacity: 1; stroke-width: 0.5px; fill: rgb(237, 125, 49); fill-opacity: 1; stroke: rgb(50, 50, 50); stroke-opacity: 1;"/></g></g></g><rect class="legendtoggle" x="0" y="-9.5" width="76.25" height="19" style="fill: rgb(0, 0, 0); fill-opacity: 0;"/></g></g><g class="groups" transform="translate(0,60)"><g class="traces" transform="translate(0,128.5)" style="opacity: 1;"><text class="legendtext" text-anchor="start" x="40" y="4.680000000000001" style="font-family: 'Open Sans', verdana, arial, sans-serif; font-size: 12px; fill: rgb(42, 63, 95); fill-opacity: 1; white-space: pre;">hel</text><g class="layers" style="opacity: 1;"><g class="legendfill"/><g class="legendlines"/><g class="legendsymbols"><g class="legendpoints"><path class="scatterpts" transform="translate(20,0)" d="M4,4H-4V-4H4Z" style="opacity: 1; stroke-width: 0.5px; fill: rgb(0, 0, 0); fill-opacity: 1; stroke: rgb(50, 50, 50); stroke-opacity: 1;"/></g></g></g><rect class="legendtoggle" x="0" y="-9.5" width="76.25" height="19" style="fill: rgb(0, 0, 0); fill-opacity: 0;"/></g></g></g><rect class="scrollbar" rx="20" ry="3" width="0" height="0" x="0" y="0" style="fill: rgb(128, 139, 164); fill-opacity: 1;"/></g><g class="g-gtitle"/></g></svg>